<svg width="204" height="204" viewBox="0 0 204 204" fill="none" xmlns="http://www.w3.org/2000/svg">
<g id="Group 25">
<g id="Group 24">
<mask id="mask0_402_1678" style="mask-type:alpha" maskUnits="userSpaceOnUse" x="3" y="3" width="198" height="198">
<circle id="Ellipse 1" cx="102" cy="102" r="97.5" fill="#C4C4C4" stroke="black" stroke-width="3"/>
</mask>
<g mask="url(#mask0_402_1678)">
<g id="Group 23">
<g id="Group 22">
<g id="peep-38 1">
<path id="Vector" d="M159.705 167.157H111.324V226.758H159.705V167.157Z" fill="#FDEA6B"/>
<path id="Vector_2" fill-rule="evenodd" clip-rule="evenodd" d="M97.2127 108.861C102.428 104.888 115.52 103.101 121.087 106.927C126.584 110.768 127.183 116.98 129.745 122.694C132.162 121.554 136.154 123.187 136.855 125.431C137.724 126.489 137.763 129.462 138.362 130.884C164.442 135.037 168.401 155.377 171.54 178.469C175.693 201.901 185.12 225.282 181.027 249.394C181.56 250.166 181.981 250.917 182.37 251.808C183.301 253.393 182.101 255.638 180.222 255.551C177.791 255.337 175.383 255.045 172.939 254.954C166.166 254.719 159.387 254.747 152.611 254.833L151.687 254.845C117.539 255.27 83.3937 256.108 49.2444 256.331C48.0055 256.332 47.399 255.221 47.5644 254.124C47.8976 251.917 48.2067 249.708 48.5293 247.5C40.4521 249.634 31.8653 250.171 23.811 247.724C23.2475 247.15 25.1238 247.461 25.4215 247.374C18.0089 242.307 20.2226 231.632 20.8792 223.944C24.9622 197.599 26.4015 168.45 42.1767 145.969C49.0012 136.795 59.0067 129.531 70.5036 127.897L70.8226 127.853C74.1843 127.404 77.9309 127.26 80.8701 125.431C84.1759 122.79 85.5846 117.912 89.0624 117.867C90.2108 117.852 91.773 119.305 93.4541 120.292C93.5796 118.121 94.7489 116.289 95.0071 114.606L95.028 114.462C95.2974 112.5 94.9284 110.735 97.2127 108.861ZM153.259 179.165C145.93 174.072 126.998 176.631 126.565 176.916C125.61 177.544 125.199 177.6 124.683 178.415C124.174 178.483 123.664 178.553 123.156 178.625C122.135 178.959 122.891 180.214 124.07 179.766C123.361 182.825 125.448 185.001 126.279 188.025C126.548 189.007 126.288 190.773 126.279 191.777C126.359 193.056 127.773 194.567 127.537 195.851C126.7 200.413 122.154 204.864 124.07 209.289C125.34 211.789 129.159 213.063 131.698 213.913C136.958 215.932 146.124 213.837 149.18 209.289C150.811 206.864 152.699 200.746 153.671 198.848L153.887 195.838C154.418 188.355 154.891 180.299 153.259 179.165Z" fill="#D08B5B"/>
<path id="Vector_3" fill-rule="evenodd" clip-rule="evenodd" d="M88.7912 117.88L90.8887 119.168L103.07 125.192C105.431 125.853 106.612 126.646 106.612 127.57V136.979C106.612 138.238 108.828 141.092 113.26 145.54L117.355 141.457L117.263 140.922C116.874 138.618 116.679 137.077 116.679 136.299C116.679 135.462 120.685 132.284 128.697 126.766L132.202 123.464L131.828 122.327C133.99 122.43 136.333 123.761 136.855 125.431C137.724 126.489 137.763 129.462 138.362 130.885C164.442 135.037 168.401 155.377 171.54 178.469C175.693 201.901 185.12 225.282 181.027 249.395C181.56 250.166 181.981 250.917 182.37 251.808C183.301 253.393 182.101 255.638 180.222 255.551C177.791 255.337 175.383 255.045 172.939 254.954C166.166 254.719 159.387 254.747 152.611 254.833L151.687 254.845C117.539 255.271 83.3937 256.109 49.2444 256.331C48.0055 256.333 47.399 255.221 47.5644 254.125C47.8976 251.917 48.2067 249.708 48.5293 247.5C40.4521 249.634 31.8653 250.171 23.811 247.724C23.2475 247.15 25.1238 247.461 25.4215 247.374C18.0089 242.307 20.2226 231.632 20.8792 223.944C24.9622 197.599 26.4015 168.45 42.1767 145.969C49.0012 136.795 59.0067 129.531 70.5036 127.897L70.8226 127.853L71.1439 127.811C74.4214 127.394 78.0242 127.202 80.8701 125.431C84.0886 122.86 85.5089 118.168 88.7912 117.88ZM117.979 173.107C116.784 173.107 114.337 174.963 110.639 178.676L110.313 178.826C105.841 180.904 102.879 182.706 101.426 184.233L101.374 184.289C99.9064 185.864 96.9997 190.053 92.6541 196.855L86.3611 200.578H83.9801L82.2848 212.88L86.3611 221.663L95.5943 218.552L110.639 214.585L119.271 205.823L124.141 204.188C123.55 205.895 123.336 207.594 124.07 209.29C125.34 211.789 129.159 213.063 131.698 213.913C136.958 215.932 146.124 213.837 149.18 209.29C150.81 206.864 152.699 200.746 153.671 198.848L153.95 194.938C154.452 187.721 154.825 180.254 153.259 179.165C145.93 174.072 126.998 176.631 126.564 176.916C125.61 177.544 125.199 177.6 124.683 178.415L124.416 178.451L125.918 176.412L125.386 176.128C121.59 174.114 119.121 173.107 117.979 173.107ZM124.07 179.766C123.391 182.695 125.275 184.814 126.166 187.643L123.89 183.284V179.823C123.949 179.808 124.009 179.79 124.07 179.766Z" fill="#9DDADB"/>
<path id="Vector_4" fill-rule="evenodd" clip-rule="evenodd" d="M87.7855 117.425C88.2915 116.977 89.0402 117.54 88.7186 118.146C87.9961 119.507 87.255 120.796 86.2853 121.999C85.6973 122.729 85.0675 123.419 84.4293 124.101C86.0672 125.518 87.4719 127.278 88.7985 128.928C90.4948 131.037 92.0985 133.236 94.0027 135.166C95.8806 137.07 97.957 138.401 100.468 139.288L100.975 139.464C103.497 140.35 106.193 141.546 107.614 143.935C107.895 144.406 107.33 144.988 106.855 144.694C104.385 143.164 101.483 142.856 98.7936 141.845C96.196 140.869 93.9317 139.366 91.931 137.447C89.9336 135.532 88.2566 133.353 86.5073 131.22C84.7774 129.111 82.9149 127.309 80.8688 125.525C77.7113 127.65 74.1071 128.575 70.4422 129.483L70.0422 129.582C66.3729 130.491 62.7232 131.546 59.2808 133.129C56.2458 134.524 53.2605 136.19 50.7883 138.46C48.1639 140.87 46.1214 143.947 44.2519 146.956C40.07 153.689 37.13 161.065 34.5418 168.531C31.8498 176.296 29.5981 184.217 27.7804 192.232C26.8559 196.309 26.105 200.415 25.4879 204.55C25.1909 206.541 24.927 208.537 24.6953 210.537C24.4479 212.673 24.391 214.87 23.7361 216.923C23.4553 217.803 22.7924 218.169 22.1288 218.137L21.994 219.824C21.8153 222.072 21.6486 224.321 21.5924 226.583C21.499 230.345 21.5413 234.096 21.8118 237.849L21.8501 238.361C22.0626 241.101 22.5376 244.179 24.5968 246.185C26.7293 248.262 30.0089 248.916 32.8831 248.953C39.5776 249.04 46.0217 245.876 51.9456 243.1C58.0466 240.241 63.9809 237.068 69.773 233.626C72.7227 231.873 75.6405 230.062 78.5212 228.198C79.9348 227.283 81.3384 226.353 82.7315 225.408C83.5295 224.866 84.2856 224.273 85.0979 223.792C84.6999 223.421 84.5222 222.839 84.8556 222.33C82.5074 220.29 81.53 216.652 81.4158 213.707C81.3234 211.331 81.6731 208.961 81.949 206.607C82.0882 205.419 82.2602 204.234 82.4387 203.053C82.5093 202.586 82.5631 202.086 82.6455 201.593C76.3048 205.079 69.7863 208.184 63.0953 210.941C59.6655 212.355 56.1919 213.626 52.6703 214.791L51.9565 215.026C48.6197 216.119 45.2032 217.151 41.7536 217.775C41.5692 217.809 41.4194 217.536 41.6163 217.45C44.978 215.966 48.4561 214.714 51.8683 213.347L52.429 213.119C52.3646 213.115 52.2978 213.106 52.2281 213.09C50.2269 212.607 48.2415 211.862 46.2788 211.235C44.4572 210.653 42.4107 210.288 40.7081 209.41C40.5771 209.342 40.6504 209.16 40.778 209.151C42.6917 209.018 44.7691 209.576 46.6453 209.905L47.3502 210.028C48.531 210.236 49.7379 210.46 50.9129 210.752C50.9554 210.359 51.1753 209.963 51.4882 209.731C54.9312 207.18 54.5816 202.029 54.9498 198.23L55.2229 195.409C55.7032 190.473 56.2113 185.537 56.9833 180.638C57.0245 180.377 57.4291 180.452 57.4308 180.699C57.4706 186.772 57.0123 192.817 56.7826 198.88L56.747 199.875C56.62 203.617 56.5205 207.502 54.165 210.381C54.4943 210.188 54.9397 210.188 55.2065 210.506C55.5344 210.896 55.7237 211.334 55.7178 211.764C57.8463 210.872 59.9655 209.956 62.0744 209.021C68.8546 206.016 75.4927 202.653 81.9551 199.015C82.6506 198.623 83.3117 198.931 83.6556 199.447L83.7053 199.44C83.7135 199.439 83.7219 199.438 83.7306 199.438L83.7798 199.436C83.7817 199.436 83.7836 199.436 83.7853 199.436C84.695 198.936 85.9343 199.292 86.715 200.021C86.738 200.043 86.7577 200.067 86.7781 200.09C87.7665 199.646 88.6893 199.047 89.5267 198.288C91.2405 196.734 92.6922 194.813 93.9577 192.886C96.2881 189.337 98.2677 185.391 101.416 182.47C103.974 180.097 107.145 178.619 110.472 177.692C110.458 177.595 110.495 177.491 110.562 177.422C110.733 177.247 110.855 177.186 111.076 177.293C111.093 177.301 111.104 177.313 111.111 177.326L111.435 176.771C111.613 176.47 111.795 176.166 111.858 176.087C112.235 175.611 112.624 175.139 113.019 174.677C113.688 173.894 114.45 173.122 115.333 172.579C117.266 171.391 119.298 172.063 121.286 172.713C122.487 173.105 123.683 173.51 124.882 173.909L125.006 173.949C125.9 174.236 126.946 174.488 127.345 175.435C127.503 175.81 127.528 176.199 127.454 176.576C135.944 174.417 145.373 175.409 153.658 177.944C153.976 178.042 154.293 178.303 154.36 178.647C155.309 183.517 155.732 188.511 155.302 193.463C154.932 197.739 153.985 201.928 152.201 205.842L152.099 206.063C150.422 209.69 147.764 214.162 143.705 215.299C141.254 215.985 138.544 215.581 136.044 215.455C133.615 215.332 131.131 215.315 128.725 214.933C126.582 214.592 124.704 213.631 123.38 211.888C122.237 210.384 121.636 208.566 121.143 206.758C120.917 206.83 120.693 206.907 120.472 206.993C119.541 207.357 118.752 207.944 118.039 208.635C116.533 210.094 115.365 211.866 113.789 213.258C112.363 214.519 110.737 215.499 108.994 216.253C105.381 217.815 101.505 218.439 97.6831 219.266L97.4165 219.324C94.5395 219.956 91.6029 220.731 89.0634 222.23C89.0138 222.671 88.8129 223.086 88.4909 223.358C88.9388 223.779 89.1285 224.445 88.7349 225.07C87.6355 226.816 85.7418 227.809 84.0417 228.925L83.9311 228.998C82.2587 230.107 80.5717 231.194 78.871 232.259C75.4136 234.425 71.884 236.471 68.3045 238.427C62.5472 241.574 56.6664 244.542 50.6791 247.234C51.0384 249.003 50.9071 250.826 51.1772 252.607L51.2186 252.861C51.334 253.522 51.1782 254.074 50.7232 254.506L50.675 254.55L50.6759 254.544L50.6332 254.584L50.619 254.596L50.6237 254.592C50.5713 254.64 50.5172 254.685 50.462 254.723L50.3917 254.768C49.9535 255.034 49.3893 255.031 48.9407 254.796L48.8894 254.768L48.8032 254.719C48.2104 254.377 47.8016 253.532 48.0475 252.861C48.6519 251.211 48.8803 249.449 49.4385 247.788L48.9957 247.986L48.412 248.241C42.0998 250.971 35.0882 253.271 28.2105 251.409C25.1717 250.587 22.3314 248.846 20.8109 246.01C19.3147 243.219 19.1032 239.978 19.0238 236.873C18.9257 233.041 19.1311 229.151 19.6362 225.351C19.9753 222.801 20.3854 220.203 21.0179 217.679C20.6926 217.392 20.4534 216.98 20.3903 216.47C20.0917 214.059 20.6142 211.553 20.9341 209.156C21.2465 206.814 21.5917 204.477 21.9822 202.148C22.7704 197.444 23.6862 192.749 24.7525 188.1C26.6501 179.825 29.156 171.698 32.1729 163.764L32.4371 163.073C35.2248 155.822 38.4527 148.726 42.9473 142.356C45.0974 139.308 47.3702 136.545 50.4082 134.348C53.2544 132.291 56.4648 130.809 59.7779 129.677C63.0946 128.544 66.5036 127.784 69.9729 127.312C73.4962 126.832 77.2151 126.538 80.5018 125.092C80.086 124.347 80.4429 123.34 81.1426 122.877C83.4974 121.321 85.6749 119.296 87.7855 117.425ZM163.166 185.104C163.265 184.954 163.499 185.049 163.456 185.226C162.311 189.92 161.236 194.624 160.534 199.407C159.266 208.041 159.499 216.787 159.603 225.485L159.608 225.934C159.661 230.619 159.735 235.304 159.89 239.987C159.968 242.354 160.123 244.744 160.039 247.112C159.993 248.397 159.651 249.612 159.53 250.881C159.423 251.991 159.518 253.117 159.571 254.229C159.607 254.968 158.516 254.936 158.442 254.229L158.347 253.314C158.224 252.156 158.072 251.005 157.693 249.897C157.237 248.564 157.018 247.255 156.859 245.855C156.617 243.71 156.509 241.544 156.416 239.385L156.352 237.891C155.961 228.865 155.975 219.797 156.607 210.781L156.653 210.137C157.28 201.615 158.366 192.406 163.166 185.104ZM138.754 131.39C138.454 131.267 138.559 130.815 138.891 130.894L139.493 131.037C143.907 132.095 148.242 133.241 152.362 135.209C156.485 137.179 159.975 140.119 162.749 143.734C168.14 150.762 170.381 159.303 172.15 167.835C174.115 177.317 175.905 186.833 177.888 196.311L178.256 198.077C180.09 206.905 181.823 215.738 183.099 224.67L183.191 225.318C184.478 234.504 185.252 244.007 183.847 253.217C183.57 255.039 180.539 254.585 180.657 252.785C181 247.581 181.245 242.404 181.008 237.189C180.771 231.972 180.282 226.778 179.553 221.607C178.939 217.255 178.024 212.957 177.215 208.64L177.088 207.958C176.41 204.286 175.712 200.618 175.015 196.95L173.973 191.457C172.411 183.233 170.819 175.001 169.02 166.829L168.913 166.348C167.153 158.485 164.558 150.249 159.277 144.005C153.918 137.669 146.247 134.478 138.754 131.39ZM119.282 214.789C119.411 214.501 119.862 214.533 120 214.789C120.543 215.791 120.604 217.07 120.706 218.202L120.717 218.318C120.848 219.699 120.963 221.085 121.034 222.47C121.168 225.099 121.232 227.724 121.224 230.357C121.216 233.054 121.161 235.749 121.016 238.443L120.977 239.164C120.844 241.505 120.621 244.116 119.509 246.163C119.105 246.907 118.006 246.688 117.772 245.936C117.005 243.472 117.399 240.551 117.596 238.028L117.748 236.059C117.9 234.09 118.044 232.121 118.158 230.149C118.315 227.452 118.444 224.753 118.569 222.055C118.609 221.178 118.653 220.302 118.699 219.425L118.77 218.111C118.831 217.011 118.826 215.805 119.282 214.789ZM33.0536 218.28L33.3931 217.952C34.4353 216.932 35.7523 215.36 37.2929 215.458C37.9073 215.497 38.2988 216.007 38.1714 216.612C37.8993 217.904 36.5812 218.575 35.6324 219.364C34.5929 220.228 33.6133 221.152 32.6355 222.085C31.7681 222.912 30.9339 223.762 30.1197 224.64L29.8153 224.97C29.5235 225.288 27.4452 227.169 27.6699 227.657L27.6822 227.679C27.7447 227.772 27.6405 227.9 27.5368 227.868C26.6393 227.584 26.6953 226.815 27.0346 226.035C27.6866 224.537 28.8283 223.151 29.8253 221.872C30.8195 220.595 31.8957 219.407 33.0536 218.28ZM122.534 180.712C121.84 179.071 119.283 179.105 117.832 179.204C114.177 179.451 110.223 180.376 106.971 182.085C103.599 183.856 101.328 186.695 99.2959 189.834L99.2009 189.982C97.2202 193.062 95.3127 196.708 92.2113 198.826C90.6316 199.904 88.7871 200.89 86.8704 201.316C86.7388 201.548 86.5256 201.731 86.2461 201.798L86.1162 201.827C85.5703 201.948 84.7223 202.081 83.9898 202.001C83.9947 202.36 83.9909 202.716 83.9999 203.055C84.0257 204.029 84.0367 205.006 84.0367 205.98C84.0371 208.021 83.9275 210.065 84.0126 212.106C84.088 213.91 84.3428 215.796 85.209 217.409C85.8443 218.593 86.6828 219.376 87.695 220.124C90.185 218.606 93.0006 217.68 95.8582 216.985C99.3141 216.143 102.853 215.582 106.23 214.441C107.855 213.891 109.418 213.173 110.834 212.196C112.337 211.16 113.485 209.757 114.665 208.385L114.85 208.172C116.055 206.789 117.37 205.466 119.074 204.716C120.54 204.071 122.474 203.956 123.756 202.956C124.427 202.433 124.483 201.675 124.554 200.898C123.732 201.015 122.863 200.827 122.044 200.731L121.62 200.681C120.846 200.589 120.089 200.488 119.327 200.291C119.186 200.254 119.186 200.041 119.327 200.004C120.228 199.772 121.121 199.673 122.044 199.564L122.261 199.537C123.096 199.428 123.975 199.262 124.794 199.446C124.941 198.887 125.153 198.352 125.451 197.817C125.869 197.065 126.66 196.213 126.767 195.335C126.799 195.073 126.738 194.763 126.615 194.532L126.572 194.452C126.52 194.359 126.459 194.265 126.369 194.207C126.359 194.219 126.337 194.232 126.292 194.246C125.661 194.445 125.111 194.136 124.819 193.66C123.579 193.814 122.227 193.762 121.064 193.814L119.889 193.871C118.633 193.928 117.32 193.953 116.14 193.7C115.975 193.664 115.926 193.39 116.091 193.319C117.541 192.699 119.301 192.501 120.854 192.262C121.722 192.129 122.596 192.027 123.466 191.91C124.045 191.832 124.66 191.703 125.26 191.672C126.765 189.798 125.954 186.841 123.86 186.034C123.097 186.37 122.411 186.175 121.577 186.103C120.745 186.032 119.911 185.983 119.076 185.987C117.402 185.994 115.628 186.435 113.971 186.245C113.701 186.214 113.451 185.855 113.719 185.636C114.988 184.6 116.806 184.263 118.417 184.042L118.75 183.997C119.29 183.926 119.947 183.823 120.628 183.762C120.782 183.461 121.059 183.234 121.474 183.177C121.597 183.16 121.721 183.151 121.845 183.14L121.843 183.128C122.855 183.079 122.811 181.368 122.534 180.712ZM53.2238 212.716C53.2059 212.743 53.1863 212.77 53.1655 212.795L53.1334 212.832L53.2998 212.765L53.2238 212.716ZM140.2 177.045C135.939 176.587 131.672 176.684 127.398 176.807C127.056 177.925 125.866 178.878 124.713 178.914C125.616 180.289 125.709 182.15 125.076 183.608C126.421 184.143 127.579 185.105 128.282 186.475C129.257 188.373 129.129 190.486 128.166 192.24C128.988 192.985 129.473 194.195 129.425 195.335C129.37 196.606 128.613 197.692 127.984 198.744C127.304 199.883 127.281 200.885 127.072 202.16C126.766 204.026 125.508 205.157 123.89 205.864L123.976 206.203C124.393 207.827 124.912 209.542 126.105 210.73C127.639 212.259 130.019 212.244 132.046 212.341L132.144 212.346C134 212.439 135.855 212.548 137.711 212.653L139.103 212.731C141.239 212.848 143.291 212.862 145.035 211.45C147.882 209.143 149.834 205.327 151.069 201.948C153.662 194.856 153.693 187.073 152.503 179.686C148.511 178.399 144.369 177.493 140.2 177.045ZM104.763 188.812L104.794 188.814C105.672 188.914 106.274 189.625 106.489 190.468C106.801 191.693 106.648 192.801 107.398 193.907C108.17 195.045 108.644 195.956 108.756 197.361C108.803 197.939 108.781 198.516 108.91 199.082L109.003 199.478C109.102 199.901 109.184 200.308 109.134 200.762C109.089 201.177 108.888 201.499 108.473 201.632C107.12 202.065 106.075 201.067 105.726 199.806C105.424 198.717 105.827 197.419 105.401 196.396C105.165 195.829 104.73 195.355 104.484 194.784C104.24 194.218 104.118 193.627 104.079 193.012C104.005 191.849 105.033 190.451 104.46 189.397C104.337 189.172 104.476 188.805 104.763 188.812ZM86.7941 176.807C87.7102 176.621 88.7494 176.194 89.6528 176.549C90.1171 176.732 90.3466 177.298 89.9543 177.692C89.2731 178.375 88.2831 178.413 87.3656 178.574L87.2849 178.588C86.2 178.789 85.1133 178.98 84.025 179.16C81.9776 179.499 79.9254 179.799 77.866 180.054C75.7507 180.316 73.6296 180.549 71.5055 180.725L70.6832 180.792C68.889 180.936 67.022 181.044 65.2615 180.769C65.0057 180.729 65.0469 180.356 65.2615 180.291C67.1902 179.707 69.3058 179.551 71.2998 179.303C73.4196 179.04 75.5359 178.762 77.6467 178.433C79.754 178.103 81.8587 177.75 83.9555 177.359C84.9033 177.183 85.8495 176.999 86.7941 176.807ZM119.848 174.932C119.044 174.647 118.159 174.226 117.288 174.367C115.786 174.61 114.449 176.074 113.261 177.038L113.858 176.922C116.912 176.335 120.957 175.702 123.522 177.645C123.528 177.634 123.533 177.623 123.541 177.612C123.748 177.297 123.988 177.052 124.249 176.783C124.274 176.759 124.299 176.735 124.322 176.71L124.464 176.56L124.141 176.448C123.449 176.203 122.629 175.887 122.5 175.841L122.491 175.838C121.608 175.539 120.725 175.243 119.848 174.932ZM94.749 110.878C94.6233 109.26 97.1397 109.273 97.2643 110.878C97.5362 114.379 96.7484 117.848 95.0528 120.919C95.0403 120.941 95.0266 120.961 95.0135 120.982C96.074 121.534 97.1466 122.064 98.2431 122.537C99.6457 123.143 101.075 123.694 102.529 124.162C103.845 124.586 105.466 124.753 106.572 125.634C108.905 127.493 108.029 131.349 107.58 133.849L107.51 134.243C107.286 135.529 107.125 136.849 107.667 138.084C108.246 139.402 109.416 140.38 110.461 141.324L110.672 141.515C111.597 142.358 112.654 143.383 113.332 144.526C113.952 143.245 114.796 142.198 115.689 141.019C116.326 140.178 115.872 139.9 115.415 139.079C114.974 138.288 114.759 137.445 114.897 136.542C115.151 134.876 116.482 133.673 117.807 132.768C119.372 131.701 121.119 130.91 122.737 129.917C126.061 127.876 129.298 125.543 132.214 122.952C132.295 122.881 132.434 122.975 132.37 123.072C130.066 126.578 127.365 129.607 124.045 132.179C122.698 133.221 121.284 134.086 119.86 134.995L119.451 135.258C118.879 135.628 118.166 136.124 117.908 136.754C117.648 137.388 118.203 137.867 118.501 138.393C119.449 140.061 118.992 141.618 117.868 143.033L117.816 143.098C116.699 144.475 115.852 145.755 115.448 147.514C114.578 151.293 115.789 155.228 117.057 158.775L117.108 158.915C117.794 160.827 118.523 162.725 119.119 164.667L119.283 165.204C119.823 166.992 120.265 168.754 119.659 170.592C119.453 171.217 118.601 171.365 118.247 170.776C116.999 168.702 116.688 166.206 115.905 163.926C115.142 161.703 114.267 159.521 113.53 157.289C112.582 154.416 111.947 151.323 112.291 148.309C112.281 148.291 112.27 148.275 112.262 148.256L112.02 147.728C111.362 146.297 110.726 145.048 109.528 143.907C108.279 142.717 106.923 141.664 105.941 140.224C103.806 137.096 105.126 133.616 105.384 130.196L105.413 129.776C105.46 129.066 105.486 128.101 105.022 127.609C104.501 127.056 103.277 126.915 102.585 126.67C100.797 126.037 99.0341 125.299 97.3554 124.413C95.7573 123.57 94.2094 122.638 92.7681 121.547L92.0376 120.997C90.885 120.127 89.6898 119.177 88.9173 117.992C88.8282 117.856 88.9797 117.636 89.1411 117.701C90.4307 118.225 91.6089 119.058 92.8154 119.782C92.8342 119.738 92.856 119.693 92.8807 119.649C94.3735 116.946 94.9875 113.951 94.749 110.878ZM135.942 129.395C136.456 127.985 138.798 128.094 138.704 129.769C138.633 131.056 138.087 132.217 137.588 133.385L137.534 133.51C137.019 134.727 136.423 135.87 135.711 136.986C134.35 139.118 132.755 141.097 131.052 142.965C129.508 144.658 127.482 145.694 125.147 145.522C124.163 145.449 123.17 145.199 122.308 144.707C121.284 144.123 120.171 142.369 118.865 142.794C118.739 142.835 118.621 142.65 118.73 142.562C120.238 141.347 121.95 143.231 123.394 143.685C125.57 144.369 127.803 143.613 129.203 141.853C130.665 140.016 132.011 137.959 133.24 135.958C133.864 134.942 134.434 133.888 134.925 132.802C135.422 131.705 135.535 130.513 135.942 129.395ZM132.435 120.721C132.372 120.526 132.613 120.341 132.784 120.452C133.775 121.097 134.634 121.95 135.548 122.698C136.563 123.527 137.584 124.34 138.622 125.14C140.134 126.306 138.38 128.453 137.049 127.179C135.227 125.436 133.231 123.157 132.435 120.721ZM126.994 113.898C127.396 112.345 129.778 112.986 129.431 114.521L129.419 114.567C128.762 117.103 129.698 119.684 131.697 121.328L131.77 121.388C133.034 122.4 131.243 124.169 129.991 123.167C127.259 120.979 126.122 117.262 126.994 113.898Z" fill="#00160A"/>
<path id="Vector_5" fill-rule="evenodd" clip-rule="evenodd" d="M116.337 33.4085C148.069 34.4156 149.983 49.5255 149.983 74.8653C149.983 100.205 133.522 116.173 127.461 118.961C121.4 121.749 105.44 133.725 91.0372 128.206C76.6343 122.687 80.8052 99.3707 80.8052 89.3521C80.8052 79.3336 84.6064 32.4014 116.337 33.4085Z" fill="#D08B5B"/>
<path id="Vector_6" fill-rule="evenodd" clip-rule="evenodd" d="M85.6687 73.6227C92.2296 46.8027 104.207 33.7174 121.6 34.3668C147.69 35.3408 147.415 61.9997 145.778 59.569C144.709 57.9809 137.222 52.4332 123.317 42.9258L122.457 42.3388L85.6687 73.6227Z" fill="#9FD8E5"/>
<path id="Vector_7" fill-rule="evenodd" clip-rule="evenodd" d="M129.211 110.639C123.384 113.9 116.712 114.027 110.444 111.974C106.685 110.747 103.239 108.849 100.013 106.579C97.2068 104.603 94.7023 102.411 92.2209 100.084C90.178 95.5674 88.3588 91.0593 87.5069 86.1454C86.7437 81.7345 86.6425 77.1546 87.528 72.7521C94.0763 67.3521 100.584 61.9078 107.084 56.4467C110.394 53.6651 113.712 50.8987 117.07 48.1763C118.776 46.7941 120.465 45.3907 122.164 44.0022C122.444 43.7739 122.723 43.5457 123.003 43.3174C126.511 45.8916 130.272 48.0983 133.755 50.7147C135.578 52.0863 137.351 53.5467 139.04 55.0831C139.925 55.8885 140.79 56.7191 141.633 57.5709C142.405 58.3488 143.149 59.4646 144.243 59.7585C144.393 59.7985 144.534 59.8069 144.667 59.7879C146.13 72.6296 147.169 86.4963 140.901 98.1586C138.167 103.246 134.29 107.794 129.211 110.639ZM91.304 115.358C90.5016 114.621 91.6974 113.429 92.4964 114.162C97.5153 118.771 104.076 121.214 110.704 122.345C111.773 122.528 111.317 124.157 110.255 123.975C103.336 122.795 96.5354 120.162 91.304 115.358ZM85.2804 122.429C84.3225 121.914 85.1752 120.455 86.1315 120.969C90.0416 123.072 94.3304 124.164 98.6805 124.902C99.7504 125.083 99.294 126.712 98.2323 126.532C93.7344 125.769 89.3208 124.602 85.2804 122.429ZM101.195 51.1988C104.439 48.2799 107.926 45.5025 111.609 43.1589C115.336 40.7875 119.407 39.3694 123.807 39.3356C123.499 39.5828 123.206 39.8576 122.909 40.1131C122.079 40.8256 121.25 41.542 120.421 42.2564C118.764 43.6873 117.103 45.1158 115.467 46.5701C112.246 49.436 109.014 52.2871 105.799 55.1593C99.6198 60.6798 93.5736 66.3205 87.6577 72.1244C87.6896 71.9828 87.7233 71.8412 87.7568 71.6998C89.7153 63.4992 95.0428 56.7339 101.195 51.1988ZM126.628 39.6927C126.649 39.6293 126.664 39.5678 126.672 39.5089C135.116 40.6121 142.168 46.8404 144.499 55.041C144.297 55.3242 144.185 55.6602 144.227 56.0172C144.248 56.1971 144.269 56.3788 144.291 56.5585C144.002 56.2713 143.704 56.0026 143.452 55.7469C142.61 54.893 141.748 54.0622 140.863 53.2528C139.052 51.5981 137.171 50.051 135.189 48.6075C131.743 46.0966 128.011 43.7887 123.902 42.584C124.172 42.3621 124.442 42.1402 124.714 41.9204C125.525 41.2586 126.278 40.7135 126.628 39.6927ZM141.765 30.9238C136.581 25.2448 129.403 21.0855 121.843 19.6398C114.624 18.2576 107.151 19.1685 100.331 21.8548C86.06 27.4767 74.8 39.8388 69.5274 54.1639C66.4536 62.5101 65.4459 71.6595 66.3695 80.4939C67.2885 89.288 69.9301 98.3699 74.7368 105.852C75.1774 106.537 75.6602 107.194 76.1662 107.83C75.9406 110.413 75.0804 112.944 73.727 115.147C73.6542 115.265 73.5775 115.38 73.5016 115.496C72.1157 116.537 70.6781 117.513 69.2746 118.521C68.0584 119.395 66.8546 120.291 65.7109 121.258C64.6313 122.171 63.3775 123.188 62.6466 124.421C62.0476 125.43 61.8031 126.803 62.6207 127.766C63.6058 128.926 65.2751 128.517 66.6096 128.517C66.7239 128.517 66.8379 128.519 66.952 128.521C67.3528 128.773 67.7656 129.002 68.1655 129.214C72.2069 131.361 76.2632 133.486 80.3236 135.599C88.4109 139.811 96.4643 144.193 104.718 148.071C108.542 149.869 112.636 151.442 116.92 151.436C120.938 151.429 124.571 149.829 127.708 147.397C131.283 144.626 134.273 141.107 137.174 137.658C138.333 136.277 139.469 134.88 140.585 133.464C142.727 132.748 144.852 132.539 146.762 133.921C148.294 135.031 150.314 133.521 150.35 131.856C150.363 131.264 150.337 130.681 150.274 130.106C149.89 126.555 148.157 123.343 146.205 120.363C145.139 118.733 144.015 117.133 142.885 115.548C142.619 115.174 142.358 114.8 142.105 114.419C146.644 107.72 150.244 100.291 152.458 92.528C154.784 84.3595 155.574 75.8886 155.056 67.424C154.259 54.4513 150.708 40.722 141.765 30.9238Z" fill="#00160A"/>
<path id="Vector_8" fill-rule="evenodd" clip-rule="evenodd" d="M126.025 101.411C124.605 100.831 123.338 99.8646 122.411 98.6296C122.089 98.2003 122.006 97.7469 122.073 97.3322C122.149 96.8659 122.425 96.4433 122.801 96.1599C123.178 95.8755 123.65 95.7353 124.106 95.8068C124.503 95.8689 124.897 96.086 125.21 96.5363L125.275 96.6264C125.826 97.3718 126.543 97.9834 127.361 98.3776C128.149 98.7576 129.031 98.9349 129.943 98.8318C131.68 98.6355 132.878 97.6955 134.151 96.419C134.309 96.2578 134.466 96.0916 134.625 95.9227C134.725 95.7696 134.864 95.6712 135.019 95.6196C135.19 95.5623 135.384 95.5655 135.562 95.6275C135.733 95.6873 135.886 95.8006 135.989 95.9514C136.086 96.0948 136.141 96.2718 136.124 96.4755C136.007 97.7984 135.316 98.979 134.334 99.906C133.243 100.936 131.797 101.648 130.436 101.898C128.937 102.173 127.409 101.976 126.025 101.411ZM131.144 81.0032C132.739 81.9733 135.17 84.2354 133.454 86.6404C131.434 88.761 128.525 86.3296 127.092 85.23C125.763 84.3778 124.269 86.5696 125.503 87.5647C135.86 95.2357 140.063 81.2569 131.951 79.8626C131.058 79.7089 130.726 80.7031 131.144 81.0032ZM112.584 72.0798C112.76 69.891 116.092 69.394 116.424 71.5599C116.72 73.5001 116.371 75.2824 115.497 77.0292C114.663 78.698 112.565 77.9195 112.406 76.3999C112.194 74.3629 112.474 73.4414 112.584 72.0798ZM137.95 71.1108C138.414 70.5021 139.085 70.0866 139.889 70.3214C142.399 71.0555 141.659 74.6216 140.778 76.3574C140.298 77.3 138.75 77.539 138.05 76.7091C136.909 75.3556 136.363 72.6526 137.813 71.3194C137.852 71.2505 137.896 71.181 137.95 71.1108ZM115.462 62.5023L115.859 62.4329C117.086 62.2206 118.611 62.0166 119.479 63.0034C119.94 63.5267 120.098 64.4994 119.479 65.0003C118.391 65.8816 117.187 65.54 115.883 65.6147C114.808 65.6764 113.775 65.8543 112.74 66.1504C110.468 66.7999 108.617 67.9856 106.677 69.2875C106.423 69.4583 106.163 69.1326 106.284 68.8944C107.404 66.6999 109.575 64.8973 111.749 63.7985C112.909 63.212 114.178 62.7255 115.462 62.5023ZM135.661 61.5193L135.964 61.5814C139.268 62.2723 143.56 63.6522 145.124 66.8985C145.184 67.3575 145.121 67.4559 145.07 67.5201L145.053 67.5415C145.011 67.5964 144.977 67.6721 144.778 67.7346C144.723 67.7214 144.667 67.7075 144.611 67.6927C143.894 67.5047 143.326 67.2457 142.777 66.977L142.181 66.6834C141.49 66.3445 140.793 66.0179 140.055 65.7768C138.478 65.2624 136.857 64.9 135.21 64.7065C134.853 64.6646 134.509 64.5441 134.238 64.3376C133.981 64.1416 133.784 63.8702 133.695 63.5094C133.578 63.0425 133.612 62.689 133.862 62.2678C134.05 61.9515 134.32 61.7323 134.629 61.6064C134.945 61.478 135.304 61.4478 135.661 61.5193Z" fill="#00160A"/>
<path id="Vector_9" fill-rule="evenodd" clip-rule="evenodd" d="M150.052 82.2905C147.487 84.9419 143.205 85.7027 139.792 84.2808C131.03 80.6183 135.319 69.1948 142.076 66.127C142.921 65.9165 144.048 65.4171 145.076 65.3038C145.169 65.2582 145.372 65.3903 145.617 65.2654C153.069 66.0977 154.766 77.6695 150.052 82.2905ZM121.789 82.9689C118.912 86.7861 113.564 87.9637 109.194 86.1892C100.561 82.7882 103.623 72.6584 109.529 68.6871C122.006 63.997 127.158 75.9307 121.789 82.9689ZM103.075 74.5113C103.066 74.5075 103.058 74.5056 103.05 74.5018C103.096 74.4817 103.141 74.4617 103.187 74.4412C103.172 74.4798 103.156 74.5181 103.142 74.5568C103.119 74.5413 103.1 74.5234 103.075 74.5113ZM155.991 70.385C155.286 70.3865 154.269 70.5023 153.686 70.9912C152.248 66.1401 146.94 61.6504 142.324 64.9242C138.69 66.0936 135.992 68.687 134.459 72.135C131.695 70.4903 127.349 71.1926 124.952 73.3676C123.383 68.1788 119.519 66.3618 114.921 66.0936C109.903 65.2712 104.9 70.1473 103.339 74.0589C102.042 73.9112 100.102 73.498 98.8814 74.2992C90.9574 72.2204 77.1035 71.0743 75.4926 72.2293C74.3445 72.6699 73.7145 75.3807 75.3181 75.527C76.7154 75.3285 75.155 73.5407 76.5635 73.3456C84.0683 72.8802 91.3539 74.3922 98.7793 75.0267C99.4423 75.9188 101.584 76.2172 102.727 75.8588C100.927 82.4944 104.813 87.0088 110.634 88.361C119.648 90.4325 127.49 82.3656 125.133 73.975C127.864 72.6161 131.005 72.6744 133.979 73.3902C129.009 91.691 158.471 90.87 153.87 71.6183C156.932 73.1421 157.597 70.6926 155.991 70.385Z" fill="#00160A"/>
</g>
</g>
</g>
</g>
</g>
<circle id="Ellipse 2" cx="102" cy="102" r="100.5" stroke="#00160A" stroke-width="3"/>
</g>
</svg>
