<svg width="199" height="199" viewBox="0 0 199 199" fill="none" xmlns="http://www.w3.org/2000/svg">
<g id="Mask Group">
<mask id="mask0_402_1726" style="mask-type:alpha" maskUnits="userSpaceOnUse" x="0" y="0" width="199" height="199">
<circle id="Ellipse 10" cx="99.5" cy="99.5" r="99" fill="#C4C4C4"/>
</mask>
<g mask="url(#mask0_402_1726)">
<g id="peep-19 2">
<path id="Vector" fill-rule="evenodd" clip-rule="evenodd" d="M34.9562 273.5C47.8317 273.861 59.9946 274.258 72.8453 273.5C93.4093 272.228 153.757 274.521 167.023 273.5C168.024 273.423 171.467 274.521 171.538 273.5C172.122 266.388 172.5 194.439 170.767 189.489C169.034 184.537 160.484 160.74 149.587 149.642C146.548 146.644 141.925 145.483 139.371 142.018C137.169 138.24 137.34 136.023 135.165 134.036C134.222 133.173 131.996 132.823 130.342 131.626C128.68 129.973 130.254 126.333 129.572 124.031C128.164 118.283 122.982 114.596 117.317 113.727C109.445 111.842 101.133 113.624 97.3617 119.81C95.9573 122.113 96.7048 124.913 94.9779 128.602C95.1013 131.391 91.8467 132.065 89.9019 133.17L86.0391 137.075C74.1372 143.775 60.1364 147.393 49.7083 156.392C40.8422 165.391 32.0237 175.789 28.0899 187.963C27.2755 191.28 27.0098 194.709 26.6723 198.098C25.7087 208.003 23.0259 217.617 20.7171 227.265C18.0844 239.422 15.6304 252.326 19.1786 264.598C20.2015 267.195 32.6274 273.378 34.9562 273.5Z" fill="#D08B5B"/>
<path id="Vector_2" fill-rule="evenodd" clip-rule="evenodd" d="M94.9248 128.576L95.9301 128.684V136.429L109.079 150.113L111.482 152.861C110.049 157.97 111.493 160.524 115.809 160.524C122.286 160.524 117.279 158.642 118.496 156.094L118.548 155.99C119.431 154.246 122.452 150.546 127.611 144.891L133.528 134.995V133.188L133.73 133.27C134.288 133.503 134.771 133.74 135.098 134.04C137.273 136.027 137.102 138.245 139.303 142.023C141.857 145.488 146.481 146.649 149.519 149.647C160.415 160.743 168.967 184.542 170.699 189.493C172.432 194.443 172.054 266.393 171.47 273.505C171.399 274.526 167.956 273.428 166.956 273.505C153.69 274.526 93.3413 272.233 72.7776 273.505C59.9269 274.263 47.7641 273.865 34.8886 273.505C32.5598 273.383 20.1339 267.2 19.1109 264.602C15.5628 252.331 18.0168 239.427 20.6495 227.27L20.8777 226.322C23.0941 217.149 25.5867 207.998 26.5559 198.59L26.6046 198.103C26.9422 194.713 27.2079 191.285 28.0223 187.968C31.9561 175.794 40.7746 165.394 49.6406 156.397C59.9645 147.487 73.7899 143.852 85.6138 137.28L85.9711 137.08L89.8339 133.175L89.9523 133.109C91.9081 132.042 95.0313 131.34 94.9109 128.607L94.9248 128.576Z" fill="#FDEA6B"/>
<path id="Vector_3" fill-rule="evenodd" clip-rule="evenodd" d="M96.6795 120.8C96.783 120.464 97.2269 120.558 97.2607 120.879C97.5941 124.051 97.1741 127.366 96.77 130.517C96.577 132.038 96.4655 133.62 96.1709 135.12C96.133 135.28 96.0972 135.441 96.0634 135.601C96.1599 135.774 96.4466 135.968 96.5829 136.1L97.1761 136.677L98.3665 137.829C100.695 140.084 103.022 142.342 105.35 144.596L108.766 147.909C109.938 149.045 111.269 150.133 112.297 151.399C112.854 152.087 112.98 152.931 112.431 153.667C112.16 154.03 111.673 154.296 111.178 154.351C111.371 154.62 111.52 154.925 111.616 155.264C111.809 155.953 111.111 156.801 110.369 156.513C109.526 156.189 108.829 155.608 107.971 155.33C107.105 155.049 106.164 154.994 105.265 155.145C104.853 155.215 104.45 155.318 104.056 155.449C108.264 157.386 112.816 158.499 117.459 158.658C118.405 158.69 119.349 158.677 120.289 158.615C121.87 158.511 123.441 158.271 124.985 157.884C126.198 157.58 127.399 157.196 128.564 156.734C129.136 156.507 129.701 156.257 130.248 155.972L130.296 155.944C130.42 155.867 132.704 154.571 132.744 154.376C132.784 154.181 132.784 154.113 132.709 153.944C132.636 153.774 132.429 153.657 132.429 153.657C131.723 153.356 130.991 153.075 130.221 153.069C128.445 153.059 126.51 154.372 125.041 155.265C123.429 156.248 121.946 157.396 120.394 158.461C120.359 158.486 120.319 158.496 120.281 158.496C120.117 158.496 119.965 158.294 120.071 158.137C121.183 156.499 122.684 155.134 124.254 153.944L124.887 153.469C126.325 152.396 128.007 151.208 129.756 150.949C131.898 150.633 134.137 151.969 136.048 152.751L139.433 154.138C140.036 154.384 140.693 154.595 141.3 154.874L139.881 150.433C139.173 148.213 138.465 145.992 137.765 143.77L137.63 143.334C136.932 141.079 136.292 138.732 135.131 136.67C134.853 136.176 134.536 135.711 134.222 135.241C133.896 134.755 133.774 134.22 133.364 133.786C132.553 132.925 131.39 132.42 130.28 132.091C130.008 132.01 130.089 131.653 130.342 131.626C131.482 131.506 132.569 131.771 133.598 132.252L134.026 132.456C134.999 132.917 135.949 133.346 136.672 134.173C138.32 136.062 139.177 138.44 139.963 140.788L140.173 141.418C140.468 141.321 142.467 141.931 142.717 142.076C150.214 145.246 155.987 151.149 160.21 158.065C164.837 165.644 167.355 174.305 169.435 182.875C170.077 185.52 170.69 188.173 171.28 190.831C168.653 191.843 165.861 192.372 163.401 193.796C162.465 194.339 163.311 195.794 164.25 195.25C166.553 193.916 169.177 193.422 171.643 192.486C172.98 198.642 174.168 204.83 175.165 211.046C178.224 230.121 180.156 249.507 180.035 268.843C180.033 269.271 179.906 269.748 179.672 270.158C179.81 270.091 179.917 270.01 179.978 269.914C180.753 268.696 182.699 269.825 181.919 271.051L181.804 271.228C181.219 272.13 180.673 272.82 179.644 273.33C178.606 273.843 177.484 273.93 176.34 273.959C172.453 274.061 168.562 274.128 164.669 274.177C164.136 270.011 163.919 265.807 163.183 261.667C162.994 260.603 161.373 261.054 161.562 262.115C162.272 266.113 162.499 270.172 162.994 274.197C154.674 274.286 146.349 274.287 138.034 274.31C126.767 274.344 115.501 274.32 104.234 274.314L99.4046 274.312C86.3891 274.312 73.3729 274.27 60.3571 274.184L57.2617 274.162C56.0303 266.9 55.1921 259.577 55.1766 252.198C55.1742 251.115 53.4921 251.113 53.4944 252.198C53.51 259.569 54.3389 266.893 55.5588 274.153C52.4771 274.139 49.3967 274.151 46.3148 274.26L44.7461 274.316C41.6076 274.424 38.4627 274.489 35.3301 274.239C31.8521 273.959 28.3344 273.32 25.216 271.682C23.8117 270.942 22.575 269.997 21.5182 268.886C22.5924 268.26 23.6821 267.661 24.7228 266.979C25.625 266.389 24.7833 264.931 23.8737 265.527C22.7523 266.26 21.5734 266.9 20.4189 267.579C19.5828 266.462 18.8967 265.224 18.3756 263.887C17.5534 261.777 17.2359 259.508 16.9604 257.274C16.6348 254.642 16.5 251.99 16.5 249.339C16.5 243.764 17.0866 238.207 17.9048 232.7C18.6872 227.424 19.7215 222.19 20.8146 216.974L20.9641 216.262C22.0428 211.134 23.0711 205.991 24.3074 200.898C25.4507 196.189 26.7719 191.501 28.3464 186.905C29.7479 187.772 31.2145 188.53 32.5942 189.433C33.5028 190.028 34.3466 188.572 33.4433 187.981C31.9713 187.017 30.4014 186.216 28.916 185.275C30.6766 180.353 32.7433 175.546 35.2209 170.941C40.1831 161.721 46.8701 153.473 55.4346 147.386C59.7218 144.339 64.4257 141.847 69.3653 140.033C74.4013 138.182 79.6201 137.168 84.9568 136.752C85.1091 136.74 85.1947 136.881 85.1887 137.012L85.1868 137.036L85.3968 137.069C85.4744 136.542 85.6346 136.03 85.9392 135.562C86.6329 134.493 87.9487 133.807 89.0007 133.151L89.2496 132.996C90.5007 132.22 91.8204 131.456 93.2756 131.184C93.3263 131.175 93.3572 131.228 93.3233 131.268C92.3639 132.369 91.1376 133.21 90.013 134.14L89.7552 134.355C88.8226 135.123 87.5237 135.994 87.4889 137.275C87.4491 138.786 87.7576 140.358 87.8691 141.864C87.9806 143.366 88.0582 144.866 88.098 146.372C88.2433 151.767 88.0691 157.166 87.5914 162.54L89.7024 161.126C92.9879 158.926 96.2843 156.732 99.6484 154.672C101.685 153.425 103.972 152.358 106.411 152.407C107.094 152.419 107.867 152.518 108.607 152.728C107.81 151.973 107.047 151.17 106.266 150.41C104.981 149.158 103.696 147.907 102.412 146.658L98.7079 143.048L95.0014 139.438C93.8538 138.317 92.5082 137.284 92.6296 135.518C92.7291 134.107 93.4457 132.705 93.9354 131.345C94.0051 131.15 94.0678 130.956 94.1265 130.765C95.1159 127.48 95.6762 124.074 96.6795 120.8ZM144.557 261.78C143.791 261.014 142.602 262.203 143.368 262.971L143.773 263.374C144.451 264.05 145.122 264.746 145.59 265.581L145.659 265.708C146.164 266.666 147.616 265.817 147.111 264.859C146.487 263.674 145.494 262.718 144.557 261.78ZM111.726 261.564C109.287 261.098 106.936 261.098 104.497 261.564C103.435 261.767 103.884 263.39 104.944 263.187C107.077 262.78 109.146 262.78 111.28 263.187C112.338 263.389 112.79 261.767 111.726 261.564ZM78.7824 244.601C77.7327 244.335 77.2848 245.957 78.3353 246.224L78.8525 246.353C80.6107 246.788 82.2852 247.112 84.1118 246.709C85.1539 246.478 84.7329 244.894 83.7057 245.077L83.6639 245.085C81.9743 245.458 80.4175 245.016 78.7824 244.601ZM137.291 233.67C136.513 232.915 135.323 234.103 136.101 234.86C137.072 235.804 138.216 236.523 139.603 236.56C140.669 236.59 140.685 234.958 139.65 234.88L139.603 234.877C138.673 234.852 137.933 234.295 137.291 233.67ZM38.2882 229.175C39.2567 228.692 38.4057 227.24 37.4393 227.723L31.6257 230.63C30.6571 231.115 31.5081 232.567 32.4744 232.084L38.2882 229.175ZM153.168 229.547C152.085 229.516 152.086 231.199 153.168 231.23C154.185 231.258 155.228 231.644 156.135 232.084C157.104 232.554 157.958 231.104 156.984 230.63C155.798 230.055 154.497 229.583 153.168 229.547ZM98.8472 221.421C99.738 220.816 98.897 219.357 97.9982 219.968C96.772 220.802 95.6613 221.786 94.454 222.645L94.1225 222.876C93.2318 223.481 94.0728 224.94 94.9715 224.329C96.3092 223.42 97.5095 222.331 98.8472 221.421ZM161.404 209.191C160.321 209.19 160.32 210.873 161.404 210.874L161.609 210.873C162.503 210.868 163.444 210.843 164.275 211.2L164.371 211.243C165.344 211.702 166.199 210.252 165.22 209.79C164.001 209.217 162.727 209.191 161.404 209.191ZM67.9825 207.988L68.1239 207.936C69.1353 207.572 68.6991 205.945 67.6766 206.313C66.1357 206.867 64.9369 207.913 63.6002 208.821C62.7095 209.426 63.5502 210.885 64.4491 210.274C65.6009 209.491 66.6724 208.501 67.9825 207.988ZM131.08 203.61L131.306 203.489C132.269 202.993 131.419 201.541 130.458 202.036C129.694 202.429 129.011 202.951 128.261 203.368L128.035 203.49C127.072 203.985 127.922 205.438 128.884 204.943C129.648 204.55 130.331 204.027 131.08 203.61ZM105.488 187.31L105.315 187.143C104.541 186.384 103.351 187.574 104.125 188.333C106.061 190.228 108.35 191.668 110.658 193.058L111.078 193.311C112.009 193.869 112.856 192.415 111.927 191.858L111.311 191.487C109.259 190.249 107.23 188.97 105.488 187.31ZM58.9376 185.74C59.59 184.892 58.1715 184.062 57.5085 184.861L57.4851 184.89C56.8061 185.771 56.0004 186.57 55.1584 187.298L55 187.435C54.4988 187.861 53.5864 188.775 52.8822 188.835C51.8115 188.925 51.8018 190.61 52.8822 190.518C53.9718 190.425 54.9095 189.658 55.7327 189C56.9308 188.044 58.0026 186.953 58.9376 185.74ZM148.433 179.608C149.214 178.874 148.06 177.704 147.271 178.394L147.244 178.419C145.784 179.792 143.681 180.16 141.801 180.626C140.751 180.886 141.196 182.509 142.248 182.248L143.105 182.037C145.027 181.557 146.955 180.998 148.433 179.608ZM115.118 168.994C114.068 168.727 113.62 170.349 114.67 170.617C116.455 171.07 118.145 171.656 119.799 172.47C120.767 172.947 121.621 171.496 120.648 171.017C118.869 170.141 117.039 169.482 115.118 168.994ZM132.302 133.519C132.277 133.444 132.357 133.357 132.435 133.384C134.323 134.089 133.319 136.562 132.732 138.042L132.627 138.313C131.707 140.685 130.423 142.995 129.023 145.12C127.557 147.344 125.929 149.472 124.167 151.47C123.402 152.338 122.61 153.181 121.79 153.998L121.481 154.304C120.653 155.118 119.585 156.548 118.3 156.391C116.917 156.225 116.145 154.746 117.154 153.622C117.867 152.828 118.856 152.194 119.652 151.47C120.443 150.756 121.209 150.017 121.955 149.258C123.482 147.699 124.928 146.052 126.251 144.316C127.53 142.638 128.754 140.913 129.868 139.121L130.089 138.761C130.936 137.366 132.891 135.316 132.302 133.519ZM65.418 151.146C64.5219 150.534 63.6795 151.991 64.5689 152.599C66.2045 153.718 67.6434 155.072 69.4137 155.992C70.3616 156.485 71.2045 155.073 70.2964 154.557L70.2628 154.539C68.4937 153.619 67.0527 152.264 65.418 151.146Z" fill="black"/>
<path id="Vector_4" fill-rule="evenodd" clip-rule="evenodd" d="M102.918 45.2081C134.723 43.6402 149.074 66.089 150.002 76.1158C150.646 83.076 146.545 91.0986 146.545 97.3182C146.545 100.492 150.422 107.308 148.617 111.935C144.599 122.235 136.093 133.664 125.253 133.664C114.412 133.664 100.305 136.669 88.3276 119.477C87.2039 117.863 72.9892 108.695 71.6082 99.9827C68.1683 78.2811 80.2246 46.3269 102.918 45.2081Z" fill="#D08B5B"/>
<path id="Vector_5" fill-rule="evenodd" clip-rule="evenodd" d="M101.42 31.2372C102.556 29.9329 104.476 29.4112 106.182 29.5122C108.66 29.6594 110.815 31.193 113.282 31.3065C115.866 31.4265 118.361 30.5282 120.952 30.9447C122.541 31.2013 124.114 31.9397 125.133 33.1851C128.657 32.1732 132.485 33.5132 134.73 36.4393C137.499 36.008 140.513 37.8467 141.361 40.5223C144.879 40.6359 148.201 43.4694 148.594 47.0202C149.999 47.3925 151.22 48.3646 151.97 49.6497C152.841 51.139 152.985 52.8471 152.828 54.5258C154.483 55.3734 155.325 57.1951 155.545 59.122C157.058 60.2537 157.715 62.2879 157.406 64.2084C158.565 64.8626 159.163 66.3856 159.156 67.7445C159.15 69.0129 158.815 70.1365 159.286 71.3605C159.707 72.4508 159.859 73.3594 159.627 74.5014L159.603 74.6127C159.562 74.7988 159.528 74.9774 159.497 75.1535C159.81 75.429 160.076 75.7745 160.275 76.1763C161 77.6446 160.892 79.3191 160.338 80.8083C160.581 81.7566 160.55 82.7583 160.192 83.6698C160.863 84.6385 161.215 85.8266 161.112 87.0593C160.995 88.4394 160.367 89.6751 159.414 90.5888C159.668 92.4739 158.903 94.5113 157.521 95.838C157.717 96.9667 157.548 98.1501 156.931 99.22C156.493 99.9824 155.901 100.551 155.22 100.946C155.242 101.576 155.157 102.22 154.948 102.865C154.658 103.761 154.167 104.585 153.52 105.25C153.906 107.723 152.429 110.467 149.828 111.161C149.61 111.219 149.402 111.246 149.202 111.25C148.944 113.629 148.38 115.975 147.507 118.203C145.286 123.877 141.25 128.836 135.984 131.931C133.381 133.46 130.456 134.507 127.47 134.945C125.321 135.261 123.255 135.183 121.098 134.968C118.391 134.696 115.671 134.29 113.04 133.593L112.617 133.479C111.526 133.187 110.375 132.848 109.431 132.259C108.373 131.598 107.823 130.58 107.581 129.382C107.444 128.714 107.866 127.996 108.595 127.982H108.642C108.801 127.985 108.959 127.979 109.119 127.969L109.24 127.961H109.246C109.255 127.959 109.259 127.959 109.267 127.959C109.338 127.948 109.408 127.927 109.477 127.917C110.279 127.782 110.98 127.915 111.733 128.167L111.827 128.199C113.095 128.636 114.352 129.042 115.66 129.343C117.014 129.652 118.385 129.898 119.758 130.092L119.894 130.109L119.937 130.115L119.958 130.117C119.962 130.117 119.966 130.117 119.97 130.119L120.375 130.17C120.695 130.208 121.013 130.242 121.333 130.275C121.92 130.334 122.507 130.38 123.095 130.414C133.236 130.986 141.753 122.982 144.323 113.385C145.255 109.913 145.316 106.448 145.041 102.981C144.953 102.728 144.9 102.449 144.902 102.142C144.902 101.982 144.911 101.825 144.921 101.664C144.58 98.3113 143.986 94.9562 143.614 91.5901C143.18 87.6589 142.939 83.7045 143.026 79.7474C143.071 77.7932 143.278 75.858 143.552 73.9229L143.65 73.2277C142.417 72.9864 141.271 72.4003 140.359 71.5519C138.378 72.6984 135.815 72.8 133.86 71.5894C131.67 72.9666 128.609 73.0916 126.403 71.7451C125.07 72.6992 123.39 73.111 121.741 72.7487C120.999 72.5858 120.262 72.2335 119.63 71.7457C119.179 71.8254 118.722 71.8564 118.268 71.8326L118.175 71.8852C117.127 72.4384 115.967 72.8025 114.774 72.7619C113.89 72.7321 112.979 72.5573 112.136 72.2265C111.235 72.7714 110.25 73.1433 109.196 73.2767C107.657 73.4713 105.995 73.1299 104.715 72.2543C102.375 73.5905 99.4968 73.7962 96.9717 72.8985C96.4541 73.7767 95.7385 74.5339 94.9005 75.1177C95.0508 75.6566 95.0985 76.2313 95.0468 76.7839C94.9622 77.6935 94.7343 78.5091 94.362 79.2416C94.7542 80.0594 94.8726 81.0637 94.6527 82.0717C94.3401 83.5092 93.5061 84.7598 92.4262 85.7338C92.3306 88.0279 91.0756 90.1787 89.0332 91.3741C88.9297 91.4348 88.8272 91.4836 88.7237 91.5284C88.6341 91.6518 88.5256 91.7603 88.4032 91.8518C87.1043 93.0551 85.049 92.9596 83.4207 92.2798C83.3889 92.2818 83.358 92.2838 83.3262 92.2848C82.7444 92.2997 82.348 92.0718 82.1128 91.7374C81.8759 91.7503 81.6406 91.7752 81.4037 91.82C80.539 91.9822 79.5906 92.2928 78.8079 92.6968C76.7768 93.7449 75.8367 95.5961 75.5556 97.8216C75.2494 100.249 75.9458 102.722 77.8199 104.366C78.7303 105.165 79.8949 105.666 81.0783 105.876C82.3856 106.109 83.783 105.535 84.7484 106.661C84.9415 106.884 85.0739 107.194 84.9684 107.496C84.6409 108.434 84.1015 108.794 83.2585 108.924C84.4777 110.373 85.7278 111.775 87.1133 113.077C88.6112 114.488 90.1599 115.855 91.5115 117.412C92.9397 119.059 94.2306 120.805 95.1264 122.804C95.638 123.952 96.0501 125.136 96.493 126.312L96.5716 126.517C97.0653 127.766 97.7222 128.971 96.9627 130.275C96.6602 130.788 95.9764 131.285 95.3464 131.203C93.5738 130.976 92.9806 129.775 92.4341 128.209C92.0231 127.028 91.7086 125.811 91.2657 124.64C91.183 124.423 91.0925 124.208 90.9979 123.994C89.9757 124.281 88.8521 124.054 87.9394 123.469C86.965 123.902 85.8841 124.118 84.841 124.1C83.4446 124.076 82.1688 123.686 81.0718 122.985C80.9845 122.962 80.8968 122.939 80.8097 122.914C79.1409 123.555 77.1866 123.441 75.6756 122.403C74.6971 121.73 74.0282 120.832 73.648 119.833C72.3837 119.809 71.1332 119.359 70.2273 118.46C69.3956 117.635 68.9094 116.569 68.765 115.463C67.6769 115.246 66.6567 114.72 65.8566 113.831C65.1884 113.09 64.7825 112.144 64.6452 111.164C63.32 110.784 62.1247 109.917 61.472 108.707C60.8645 107.581 60.7768 106.359 61.0739 105.249L60.9969 105.137C59.6317 104.421 58.5899 103.248 58.4829 101.574C58.4527 101.097 58.5039 100.619 58.6329 100.169C58.5863 99.6639 58.6162 99.1593 58.7482 98.6716C56.9121 96.8811 56.247 94.0057 57.2437 91.6289C55.4496 89.693 54.9754 86.6324 56.2911 84.3355C55.3887 83.2415 54.925 81.8468 55.0027 80.3575C55.0992 78.4981 55.949 76.874 56.9667 75.37C56.2112 74.5327 55.8084 73.3653 55.838 72.2377C55.8797 70.6033 56.7463 69.196 57.8314 68.0306C56.8849 65.153 57.9424 62.0312 60.2652 60.2095C59.7952 59.4334 59.621 58.472 59.7744 57.498C60.0427 55.7962 61.3164 54.6372 62.6908 53.7201C62.4034 52.7821 62.4789 51.7701 62.9364 50.8002C63.547 49.5066 64.6989 48.6862 65.9013 47.992C66.2118 45.1228 69.4096 42.6721 72.0912 44.153C71.4261 42.0179 73.342 39.7124 75.5453 39.4684C76.6236 36.1911 80.3439 34.1253 83.6884 34.9394C85.3984 32.596 88.5823 31.6938 91.2846 32.6992C94.2555 30.4167 97.9421 30.078 101.42 31.2372ZM80.2531 95.5872C82.3408 95.4737 83.9064 97.1817 85.0062 98.7453C86.0383 100.211 83.3899 101.759 82.6178 100.144C82.3408 99.5674 82.0261 98.9573 81.6044 98.4527C81.5335 98.5522 81.471 98.6547 81.4087 98.7602L81.3462 98.8667C81.3001 98.9443 81.2519 99.025 81.2119 99.1066C81.2161 99.1215 81.1532 99.3146 81.1511 99.3235C80.979 99.8471 80.6034 100.183 80.0916 100.365C79.4305 100.597 78.8052 100.098 78.5933 99.5127C78.2557 98.5791 79.0402 97.7649 79.8564 97.3947C79.0549 97.2643 78.266 97.537 77.6868 98.1561C77.6073 98.2426 77.4728 98.173 77.4688 98.0655C77.4014 96.5994 78.9311 95.6589 80.2531 95.5872Z" fill="black"/>
<path id="Vector_6" fill-rule="evenodd" clip-rule="evenodd" d="M126.176 117.624C124.763 117.048 123.502 116.085 122.579 114.856C122.259 114.428 122.176 113.977 122.243 113.564C122.319 113.1 122.593 112.679 122.967 112.398C123.343 112.115 123.812 111.975 124.266 112.046C124.661 112.108 125.054 112.324 125.365 112.772L125.43 112.862C125.978 113.604 126.692 114.212 127.506 114.605C128.29 114.984 129.168 115.16 130.076 115.057C131.805 114.862 132.997 113.927 134.264 112.656C134.421 112.495 134.578 112.33 134.736 112.162C134.835 112.01 134.974 111.911 135.128 111.86C135.298 111.803 135.491 111.807 135.668 111.868C135.839 111.927 135.991 112.04 136.093 112.191C136.19 112.333 136.245 112.509 136.228 112.712C136.111 114.028 135.424 115.203 134.446 116.126C133.36 117.151 131.921 117.86 130.567 118.109C129.075 118.382 127.554 118.186 126.176 117.624ZM131.271 97.312C132.859 98.2775 135.278 100.529 133.569 102.923C131.559 105.034 128.665 102.614 127.237 101.519C125.915 100.671 124.429 102.853 125.656 103.843C135.964 111.478 140.147 97.5648 132.073 96.1774C131.185 96.0241 130.855 97.0134 131.271 97.312ZM112.799 88.4309C112.974 86.2524 116.29 85.7576 116.62 87.9134C116.915 89.8443 116.568 91.6179 115.698 93.3567C114.868 95.0178 112.78 94.2435 112.621 92.7307C112.409 90.7032 112.689 89.7856 112.799 88.4309ZM138.044 87.4663C138.507 86.8606 139.175 86.4469 139.974 86.6807C142.473 87.4113 141.737 90.961 140.859 92.6879C140.382 93.6264 138.84 93.8643 138.144 93.0382C137.008 91.6916 136.465 89.0009 137.908 87.674C137.948 87.6055 137.991 87.5362 138.044 87.4663ZM115.663 78.8984L116.058 78.8292C117.279 78.6179 118.797 78.4149 119.661 79.3971C120.12 79.918 120.277 80.886 119.661 81.3845C118.578 82.2617 117.38 81.9218 116.082 81.9961C115.012 82.0575 113.984 82.2346 112.954 82.5293C110.692 83.1758 108.85 84.3558 106.919 85.6517C106.666 85.8216 106.408 85.4974 106.528 85.2603C107.643 83.0763 109.803 81.2821 111.966 80.1885C113.122 79.6048 114.385 79.1204 115.663 78.8984ZM135.766 77.9199L136.069 77.9818C139.356 78.6694 143.629 80.0429 145.186 83.2738C145.245 83.7307 145.183 83.8286 145.131 83.8926L145.114 83.9139C145.072 83.9685 145.038 84.0438 144.841 84.106C144.785 84.0929 144.731 84.079 144.674 84.0643C143.96 83.8772 143.396 83.6194 142.85 83.352L142.256 83.0598C141.569 82.7225 140.875 82.3975 140.139 82.1575C138.571 81.6454 136.956 81.2848 135.317 81.0922C134.963 81.0505 134.62 80.9306 134.351 80.725C134.094 80.5299 133.899 80.2598 133.809 79.9007C133.694 79.4361 133.727 79.0842 133.976 78.665C134.164 78.3502 134.431 78.1319 134.74 78.0066C135.053 77.8789 135.411 77.8488 135.766 77.9199Z" fill="black"/>
<path id="Vector_7" fill-rule="evenodd" clip-rule="evenodd" d="M139.959 122.42C139.225 122.18 138.503 121.9 137.78 121.63C134.077 119.77 129.605 119.433 125.721 120.999C123.815 121.769 122.038 123.15 120.125 124.056C119.671 124.225 119.214 124.379 118.75 124.509C118.466 124.409 118.182 124.305 117.901 124.199C115.872 123.435 113.964 122.491 112.112 121.453C111.914 121.175 111.709 120.904 111.489 120.644C112.829 120.454 114.142 120.137 115.329 119.811C118.975 118.812 122.412 117.184 126.044 116.14C129.428 115.167 133.099 114.634 136.497 115.844C138.11 116.418 139.53 117.423 141.098 118.101C141.909 118.45 142.884 118.793 143.831 118.844C143.22 120.31 142.446 121.679 141.389 122.82C140.905 122.716 140.425 122.571 139.959 122.42ZM147.848 110.936C147.523 111.206 146.183 112.076 145.749 112.596C145.637 112.553 145.525 112.509 145.414 112.465C145.223 112.23 144.941 112.126 144.654 112.133C142.651 111.201 140.866 109.883 139.275 108.232C138.143 107.059 136.985 105.833 135.473 105.153C133.692 104.35 131.94 104.72 130.069 104.843C128.078 104.975 126.112 104.409 124.122 104.68C122.667 104.88 121.305 105.497 120.127 106.365C117.724 108.139 116.066 110.629 114.036 112.777C111.731 115.213 108.896 116.769 105.744 117.565C105.706 117.54 105.667 117.514 105.627 117.491C103.303 115.388 101.205 113.013 99.3485 110.482C97.535 108.011 92.7556 96.8842 91.6011 95.9088C91.1223 95.5027 90.5968 95.3276 90.0942 95.3425C89.1835 95.3634 88.3425 95.9964 87.9662 96.9937C87.3263 98.6897 87.6458 100.881 87.6965 102.655C87.7602 104.826 87.9025 106.994 88.1295 109.154C88.3544 111.29 88.653 113.418 89.0252 115.532C89.2123 116.601 89.4214 117.668 89.6503 118.73C89.7219 119.064 89.8125 119.363 89.921 119.641C90.0325 120.164 90.1529 120.687 90.2813 121.203C91.1183 124.592 92.4381 127.985 94.9592 130.487C97.5838 133.093 101.15 134.824 104.462 136.373C107.616 137.848 110.922 139.158 114.313 140.185C117.259 141.52 120.413 142.576 123.58 143.132C127.067 143.744 130.731 143.782 134.098 142.569C135.752 141.974 137.317 141.143 138.736 140.109C140.749 139.063 142.559 137.627 144.041 135.725C146.697 132.317 147.964 128.181 148.519 123.917C148.66 122.825 149.194 118.641 149.237 117.99C149.372 115.886 149.507 113.783 149.643 111.679C149.707 110.687 148.489 110.403 147.848 110.936Z" fill="black"/>
</g>
<circle id="Ellipse 13" cx="99.5" cy="99.5" r="97.5" stroke="black" stroke-width="3"/>
</g>
</g>
</svg>
