<svg width="199" height="198" viewBox="0 0 199 198" fill="none" xmlns="http://www.w3.org/2000/svg">
<g id="Mask Group">
<mask id="mask0_402_1712" style="mask-type:alpha" maskUnits="userSpaceOnUse" x="0" y="0" width="199" height="198">
<circle id="Ellipse 8" cx="99.5" cy="99" r="99" fill="#C4C4C4"/>
</mask>
<g mask="url(#mask0_402_1712)">
<g id="peep-31 2">
<path id="Vector" fill-rule="evenodd" clip-rule="evenodd" d="M176.203 239.209C175.351 234.394 174.57 229.566 173.86 224.727C173.523 222.43 173.194 220.131 172.898 217.828C172.691 216.214 172.376 214.369 173.474 213.174C175.017 211.491 176.42 210.052 176.61 207.643C176.788 205.375 176.021 202.904 175.542 200.704C174.537 196.089 173.286 191.531 171.904 187.016C170.499 182.43 168.96 177.887 167.398 173.352C165.937 169.112 164.534 164.833 162.632 160.766C159.023 153.046 152.915 147.328 145.369 143.511C143.491 142.562 139.663 139.173 137.702 138.414C135.9 137.716 135.906 139.754 134.131 138.986C132.713 138.373 131.393 137.555 130.598 136.185C129.736 134.698 127.574 132.617 127.244 130.885C126.547 127.214 127.302 124.091 124.684 121.328C122.359 118.875 119.235 117.195 116.002 116.293C108.89 114.308 99.4046 115.695 95.113 122.307C93.0632 125.464 92.3476 129.281 89.5823 131.857C87.1672 134.107 87.7077 135.645 84.58 136.804C84.4028 136.871 79.6008 135.841 79.4237 135.907C76.0021 135.174 72.7317 137.225 69.5925 138.414C64.9126 140.188 60.4569 142.496 56.2709 145.24C47.8301 150.772 40.6007 157.957 34.6406 166.086C28.6313 174.283 23.9686 183.471 20.6486 193.073C19.8425 195.405 19.1182 197.766 18.4794 200.15C18.1219 201.484 17.7398 202.868 18.1751 204.233C18.5312 205.351 19.3233 206.183 20.2535 206.853C21.5144 207.762 24.0434 208.353 23.9942 210.181C23.9566 211.571 23.4853 213.034 23.2552 214.407C22.9813 216.042 22.7563 217.687 22.5315 219.331C21.508 226.808 20.7115 234.328 20.3592 241.869C20.0124 249.294 19.7247 256.871 20.2395 264.294C20.2735 264.784 20.4194 265.233 20.6548 265.612C20.4351 265.696 20.4181 266.106 20.6916 266.164C20.8831 266.205 21.0743 266.246 21.2659 266.286C21.6638 266.587 22.1601 266.772 22.7312 266.79C23.1184 266.802 23.5054 266.819 23.8921 266.839C27.9732 267.693 32.0538 268.499 36.1882 269.109C41.2139 269.852 46.2544 270.457 51.3105 270.948C61.7001 271.959 72.0077 271.624 82.4111 271.079C92.798 270.536 103.179 270.408 113.577 270.679C123.985 270.95 134.387 271.402 144.796 271.587C156.426 271.795 168.038 271.476 179.634 270.552C181.223 270.425 182.207 269.159 181.894 267.58C180.015 258.116 177.886 248.714 176.203 239.209Z" fill="#D08B5B"/>
<path id="Vector_2" fill-rule="evenodd" clip-rule="evenodd" d="M69.5916 138.414L69.8187 138.327C72.8885 137.127 76.0836 135.191 79.4227 135.905C79.5408 135.862 81.7141 136.305 83.2024 136.586L81.7891 138.061L79.2963 138.541C87.8964 152.741 98.068 159.84 109.811 159.84C121.554 159.84 130.465 152.741 136.544 138.541L137.373 138.312C137.476 138.336 137.585 138.369 137.701 138.414C139.663 139.172 143.491 142.562 145.367 143.511C152.915 147.328 159.021 153.045 162.631 160.766C164.47 164.698 165.843 168.827 167.251 172.927L167.397 173.351C168.959 177.886 170.499 182.429 171.903 187.016C173.225 191.335 174.427 195.692 175.408 200.101L175.541 200.703C176.02 202.904 176.786 205.375 176.608 207.642C176.541 208.5 176.32 209.236 175.993 209.903L158.982 216.026L167.086 271.319C159.664 271.637 152.233 271.719 144.796 271.587C134.386 271.402 123.983 270.949 113.576 270.678C103.494 270.416 93.4261 270.527 83.3545 271.031L80.7964 271.161C70.9402 271.654 61.1617 271.907 51.3095 270.948L50.6383 270.882L50.6382 262.794L54.0989 217.756L36.5604 214.455L19.344 206.088C18.8237 205.569 18.4064 204.961 18.1742 204.233C17.7709 202.968 18.069 201.688 18.3992 200.446L18.4784 200.149C19.1173 197.765 19.8415 195.405 20.6477 193.072C23.9677 183.47 28.6303 174.283 34.6396 166.086C40.5997 157.956 47.8292 150.772 56.27 145.239C60.4559 142.496 64.9116 140.187 69.5916 138.414Z" fill="#EC7495"/>
<path id="Vector_3" fill-rule="evenodd" clip-rule="evenodd" d="M76.1781 135.673C77.2535 135.626 78.3502 135.8 79.423 135.907C79.5165 135.916 79.552 136.06 79.4467 136.082C77.5266 136.483 75.6275 137.031 73.7417 137.589L72.9343 137.828C70.8078 138.458 68.7437 139.106 66.685 139.946C62.582 141.618 58.6853 143.876 55.0989 146.471C41.2888 156.459 31.2936 171.583 24.9861 187.24C23.2732 191.493 21.8218 195.851 20.6461 200.281C20.3603 201.36 20.0914 202.442 19.8363 203.528C19.7615 203.846 19.4352 204.662 19.6141 204.987C19.7723 205.276 20.3871 205.453 20.6728 205.603L21.6373 206.103C23.5185 207.073 26.6522 208.668 26.9663 208.823L27.4564 209.064C35.4726 212.995 44.0378 216.329 53.0584 216.56L53.129 215.79C53.5312 211.529 54.0589 207.246 55.2109 203.117C55.2729 202.895 55.5552 202.97 55.5809 203.167C56.2227 208.055 56.0176 212.982 55.7937 217.893C55.3973 226.592 54.8707 235.285 54.4028 243.981C54.1685 248.33 53.8657 252.677 53.5923 257.025C53.3185 261.381 53.2299 265.841 52.6046 270.162C52.4653 271.125 51.3378 271.648 50.484 271.546C49.5393 271.434 48.8126 270.601 48.8081 269.648C48.7966 267.13 49.1128 264.584 49.2885 262.074C49.4553 259.689 49.6345 257.305 49.818 254.921C50.4887 246.221 51.2603 237.53 51.9739 228.834C52.2268 225.749 52.5 222.668 52.7812 219.586C43.2252 219.278 34.2977 215.737 25.781 211.599C25.6577 214.4 25.3599 217.194 25.0718 219.982C24.2672 227.764 23.5578 235.543 23.0269 243.348C22.7587 247.291 22.5636 251.238 22.3936 255.185C22.31 257.125 22.242 259.066 22.1897 261.007C22.1722 261.654 22.1565 262.301 22.1425 262.948L22.1135 264.431C22.0897 265.37 21.9943 266.24 21.2042 266.924C20.4017 267.619 19.3179 267.655 18.5236 266.924C17.4605 265.944 17.6485 264.61 17.68 263.295C17.7062 262.185 17.7377 261.076 17.7743 259.967C17.8476 257.748 17.9413 255.532 18.0553 253.315C18.4542 245.565 19.2509 237.847 20.2923 230.159L20.6989 227.191C21.458 221.675 22.2914 216.032 23.9886 210.717C23.3277 210.389 22.6689 210.058 22.0126 209.726C20.8483 209.136 19.6446 208.583 18.5129 207.931C17.615 207.416 16.8408 206.707 16.5908 205.662C16.312 204.497 16.7383 203.224 17.0214 202.088L17.0461 201.988C17.3237 200.844 17.6226 199.705 17.9381 198.571C19.2174 193.972 20.7993 189.463 22.6505 185.064C26.3572 176.259 31.1416 167.892 36.9859 160.327C42.2465 153.519 48.4609 147.343 55.7445 142.712C59.3052 140.448 63.0998 138.589 67.113 137.275C68.9887 136.66 71.0296 136.126 72.9935 135.906C74.0529 135.787 75.1137 135.719 76.1781 135.673ZM95.2327 121.718C96.5108 120.345 99.0489 121.766 98.4354 123.584C96.9922 127.862 94.6942 131.762 91.1072 134.572C87.7353 137.215 83.7148 138.931 79.3844 138.565C79.351 138.562 79.3221 138.553 79.2965 138.541L79.6697 139.047C82.5989 143.012 85.6895 146.921 89.4147 150.162C97.0042 156.763 107.338 160.324 117.316 157.791C125.166 155.799 132.083 149.588 134.117 141.673C133.826 141.805 133.479 141.849 133.099 141.767C131.472 141.412 129.86 139.701 128.81 138.473C127.674 137.145 126.788 135.71 126.138 134.089C124.948 131.122 124.567 127.302 126.191 124.428C126.391 124.073 126.854 124.273 126.894 124.618L126.955 125.158C127.268 127.852 127.658 130.457 128.927 132.913C129.549 134.114 130.294 135.287 131.2 136.293C131.686 136.831 132.211 137.346 132.779 137.797C133.332 138.238 134.002 138.555 134.497 139.059L134.588 139.156L134.591 139.139C134.716 138.072 135.464 137.603 136.196 137.632C136.903 137.661 137.735 137.972 138.056 138.121L138.087 138.136C143.024 140.507 147.572 143.598 151.852 147.027C160.703 154.118 167.333 163.389 170.547 174.305C172.123 179.663 173.028 185.185 173.984 190.679L174.571 194.046C175.463 199.118 176.459 204.292 178.472 209.01C178.992 210.231 178.591 211.376 177.315 211.856C175.72 212.455 174.121 213.035 172.519 213.609C173.305 216.986 173.785 220.48 174.374 223.873C175.627 231.086 177.163 238.253 178.479 245.456C179.152 249.139 179.76 252.834 180.432 256.518C180.756 258.292 181.094 260.063 181.422 261.837C181.599 262.793 181.76 263.752 181.929 264.709L181.958 264.868C182.055 265.373 182.176 265.895 182.038 266.401C181.879 266.977 181.429 267.385 181.028 267.798C180.698 268.138 180.219 268.14 179.815 267.954L179.682 267.893C178.958 267.555 178.392 267.218 178.135 266.401C177.972 265.884 177.914 265.302 177.808 264.769C177.604 263.749 177.412 262.727 177.229 261.702C176.864 259.652 176.508 257.6 176.161 255.547L175.836 253.624C174.722 246.996 173.664 240.33 173.128 233.632C172.891 230.661 172.64 227.693 172.386 224.723L172.195 222.496C171.954 219.678 171.66 216.788 171.618 213.931L170.66 214.271L165.984 215.925C164.825 216.334 163.35 217.175 162.102 217.022C161.491 216.947 161.026 216.755 160.667 216.405C161.097 222.483 161.679 228.551 162.456 234.587C163.163 240.079 163.946 245.564 164.871 251.025C165.329 253.729 165.801 256.429 166.312 259.124C166.568 260.471 166.832 261.816 167.103 263.16C167.239 263.831 167.4 264.502 167.506 265.178C167.627 265.952 167.414 266.429 166.982 267.065C166.627 267.589 165.916 267.857 165.34 267.497C164.578 267.017 164.181 266.603 163.956 265.731C163.752 264.94 163.628 264.113 163.47 263.311C163.18 261.831 162.897 260.349 162.626 258.864C162.058 255.761 161.534 252.65 161.067 249.529C159.418 238.536 158.373 227.452 157.844 216.348C157.584 210.87 157.503 205.388 157.549 199.904C157.573 197.093 157.665 194.274 157.863 191.47C158.064 188.633 158.484 185.851 158.857 183.04C158.87 182.941 159.01 182.935 159.016 183.04C159.193 186.191 159.47 189.339 159.607 192.499C159.736 195.513 159.793 198.533 159.896 201.55C160.032 205.514 160.219 209.48 160.468 213.445C160.919 212.951 161.598 212.667 162.278 212.778C163.263 212.572 164.322 212.055 165.26 211.741L168.799 210.559C170.659 209.938 172.52 209.32 174.386 208.722C172.717 203.105 171.574 197.404 170.598 191.62L170.163 189.019C169.301 183.899 168.371 178.777 166.81 173.819C165.169 168.606 162.713 163.76 159.455 159.372C156.245 155.047 152.337 151.238 148.315 147.676C144.871 144.627 141.187 141.874 137.674 138.907C137.711 139.104 137.719 139.32 137.687 139.559C136.94 145.026 134.089 150.119 130.114 153.906C122.132 161.515 110.315 163.094 100.097 159.526C90.2134 156.074 81.4744 147.9 78.3871 137.785C78.3343 137.612 78.566 137.544 78.659 137.671C78.8303 137.905 79.0024 138.14 79.1747 138.375C79.1631 138.282 79.2115 138.18 79.3265 138.135C82.9292 136.744 86.4662 134.772 89.1665 131.979C90.4826 130.619 91.6306 129.077 92.5374 127.414C92.9717 126.618 93.3621 125.793 93.6733 124.941L93.7524 124.721C94.1297 123.653 94.445 122.564 95.2327 121.718Z" fill="black"/>
<path id="Vector_4" fill-rule="evenodd" clip-rule="evenodd" d="M92.556 37.6862L94.3785 39.859C93.3687 40.5719 92.4169 41.2883 91.5201 42.008L91.5191 42.0058C95.6696 39.291 100.267 37.6862 105.233 37.6862C114.797 37.6862 134.225 45.9227 138.616 51.8635C140.795 54.8118 144.846 63.8627 146.946 73.7027C148.635 81.6089 151.145 103.945 148.635 112.338C145.421 123.079 134.85 133.008 123.95 133.008C113.049 133.008 96.126 125.118 84.0817 107.829C83.5303 107.039 77.2062 106.123 72.6944 103.155L73.8789 116.239L74.7793 123.849L74.5806 124.391C71.3493 133.151 68.7886 137.722 66.8987 138.102C64.9701 138.491 61.0428 135.321 55.1164 128.595L54.3592 125.408C52.4357 117.28 51.4741 112.917 51.4741 112.319L51.4754 112.21C51.5038 110.835 51.9765 103.048 51.9863 100.954L51.9864 69.5485C58.3599 48.307 64.4421 37.6862 70.2328 37.6862H92.556Z" fill="#D08B5B"/>
<path id="Vector_5" fill-rule="evenodd" clip-rule="evenodd" d="M77.4536 30.4524C79.3275 29.7246 81.4984 29.8622 83.2769 30.9579C86.7699 30.8078 90.2429 32.8553 92.0634 35.8443C92.1014 35.8866 92.1415 35.9288 92.1775 35.9712L92.5638 36.422C92.9292 36.8526 93.3145 37.3272 93.6197 37.8172C92.1235 37.8515 90.8784 38.4626 90.0087 39.6968C89.3881 40.5776 90.8093 41.4145 91.4439 40.5815L91.4659 40.5511C91.9883 39.81 92.776 39.523 93.6538 39.508C93.906 39.5038 94.0971 39.4071 94.2323 39.2645C94.2863 39.461 94.3344 39.6596 94.3784 39.8591C98.7972 38.1362 103.56 37.6799 108.305 38.0886C108.097 38.4262 107.923 38.788 107.789 39.1681C107.638 39.599 107.961 40.0937 108.378 40.2088C108.831 40.3332 109.238 40.0679 109.402 39.6579L109.417 39.6178C109.599 39.0999 109.897 38.6556 110.297 38.311C112.53 38.6144 114.748 39.0972 116.911 39.7195C119.511 40.4681 122.087 41.3817 124.606 42.4278C124.179 42.5955 123.811 42.879 123.552 43.3522C123.037 44.2967 124.454 45.1427 124.992 44.2397L125.011 44.2063C125.063 44.1094 125.11 44.0513 125.144 44.0181L125.156 44.0068L125.23 43.9726L125.369 43.9328L125.422 43.9197C125.469 43.9091 125.488 43.9097 125.611 43.9029C125.775 43.8936 125.94 43.8945 126.104 43.8943C126.491 43.894 126.738 43.6781 126.849 43.4018C128.092 43.9643 129.319 44.5566 130.525 45.177L130.811 45.3257C134.533 47.2747 138.058 49.8342 140.102 53.6002C140.238 53.8519 140.28 54.1269 140.246 54.3892C140.683 54.9137 141.104 55.4553 141.51 56.0053C142.746 57.6891 143.651 59.6034 144.508 61.5008C146.232 65.3168 147.393 69.2365 148.297 73.3233C149.173 77.262 149.88 81.243 150.536 85.224C151.264 89.6469 151.869 94.1087 151.997 98.5945C152.221 106.593 150.66 114.637 146.182 121.37C142.185 127.378 136.167 132.148 129.031 133.675C121.773 135.228 114.092 133.713 108.372 128.865C107.45 128.085 107.577 126.508 108.372 125.709C109.273 124.808 110.602 124.933 111.52 125.709C116.907 130.276 124.747 130.98 131.238 128.653C137.239 126.5 141.94 121.533 144.824 115.955C148.344 109.152 148.937 101.339 148.396 93.8124C148.101 89.6789 147.488 85.5794 146.854 81.4863L146.472 79.0224C146.055 76.3537 145.617 73.6887 145.047 71.0472L144.913 70.4318C144.214 67.2463 143.396 63.9793 142.132 60.9847C141.47 59.4131 140.672 57.8985 139.855 56.4029C139.697 56.1131 139.535 55.8191 139.368 55.5229C139.145 55.6012 138.889 55.6139 138.621 55.5293C136.315 54.8101 133.945 54.3278 131.534 54.1671C130.435 54.0934 129.334 54.082 128.235 54.125C126.354 54.0152 124.42 54.181 122.627 54.7594C122.452 54.6086 122.274 54.4608 122.097 54.3132C122.049 54.3094 122.001 54.3043 121.953 54.2948C121.496 54.2047 121.174 53.8789 120.98 53.4675C120.97 53.4458 120.961 53.424 120.952 53.4021C120.723 53.2264 120.492 53.0533 120.258 52.8827C119.69 53.0305 119.192 52.556 119.057 52.0361C118.93 51.9504 118.802 51.8675 118.674 51.7836C118.574 51.8081 118.474 51.8284 118.377 51.8356C117.959 51.8658 117.554 51.8015 117.183 51.6012C116.712 51.3476 116.412 50.9384 116.212 50.4737C115.5 50.5175 114.782 50.2863 114.146 49.8683C113.631 49.5292 113.235 49.0611 112.843 48.5938C108.058 46.4542 102.857 45.1909 97.6422 44.8674C97.1287 44.9663 96.6193 45.0841 96.1149 45.2213C95.9958 45.2538 95.8266 45.3176 95.6325 45.3942C96.7945 45.2534 97.9715 45.2394 99.1655 45.4118C104.832 46.2332 109.245 50.4863 113.043 54.5009C113.947 54.3179 114.86 55.4908 114.024 56.2676L107.505 62.3238C107.665 63.0012 106.89 63.6688 106.211 63.5062C105.073 63.232 103.933 62.9655 102.792 62.7034C101.602 63.2807 100.105 63.1819 99.0264 62.3451C98.9763 62.3061 98.8672 62.244 98.7721 62.1821C98.6841 62.2556 98.564 62.3292 98.5169 62.3605C98.1326 62.6152 97.6652 62.6901 97.2168 62.6186C96.7554 62.5451 96.3401 62.3105 95.9808 62.0185C95.7526 61.8323 95.2201 61.056 94.9239 60.9987L94.8948 60.9955C95.092 61.0012 94.4565 61.5932 94.2863 61.7157C93.888 62.0007 93.4476 62.1504 92.9522 62.0959C92.0874 62.0006 91.3448 61.2114 90.9224 60.4826L90.8904 60.4266L90.8774 60.392L90.8664 60.4295C90.8644 60.4361 90.8624 60.4432 90.8594 60.4513C90.7953 60.6228 90.5972 60.8178 90.4621 60.9378C90.0767 61.279 89.6003 61.4289 89.0919 61.3398C88.6605 61.2647 88.2982 61.0038 88.008 60.6881L87.9619 60.6378C87.8758 60.5403 87.3084 59.776 87.3984 59.5928L87.4084 59.5774L87.3804 59.5715C87.0351 59.6565 86.7449 59.5712 86.5327 59.3929C85.3487 59.1327 84.1797 58.8297 83.0477 58.4442C82.9586 58.6938 82.8726 58.9435 82.7875 59.1952C83.406 59.578 83.9775 60.1238 84.503 60.513C85.4998 61.2491 86.4947 61.9853 87.4885 62.7235L91.4269 65.6354L91.8773 65.5142C92.4528 65.3593 92.9462 65.6951 93.1574 66.2085L93.1744 66.2529C93.2584 66.4777 93.3595 66.6857 93.4776 66.8847C94.4625 66.8454 95.2952 67.4512 95.5654 68.3202C95.8076 68.3147 96.0538 68.324 96.305 68.3517C96.9926 68.4274 97.456 68.9393 97.3309 69.6422L97.3219 69.6904L97.3049 69.7687C97.7042 69.9383 97.9935 70.266 98.0575 70.7614C98.1636 70.9224 98.2497 71.0975 98.3047 71.2926C98.593 72.3046 98.0335 73.5555 97.7353 74.525L97.7122 74.6009C97.5211 75.2381 97.3229 75.8721 97.1227 76.5059L96.6233 78.0795C95.2401 82.4649 93.892 87.0888 95.0109 91.6866C95.2501 92.6594 94.0091 93.0988 93.4706 92.3382C92.1665 90.4946 90.7573 88.7571 89.277 87.0891L89.206 87.0777C88.1691 86.8689 87.7668 86.1351 87.2913 85.3871C87.0111 85.4698 86.7098 85.4893 86.4186 85.433C85.9972 85.3516 85.6189 85.1102 85.3217 84.8054C85.0684 84.5469 84.8372 83.8839 84.539 83.7196C84.1657 83.5142 83.414 83.8078 82.9687 83.7418C82.6053 83.6883 82.2671 83.5635 81.9388 83.4067C81.3346 84.2319 80.9343 85.202 80.8362 86.2479C80.798 86.6455 80.6799 86.9818 80.509 87.2608C81.1377 87.2378 81.7686 87.2818 82.3912 87.3989C84.6951 87.8283 86.3475 89.2535 87.2763 91.3773C87.3164 91.4704 87.1953 91.5465 87.1412 91.4574C85.763 89.3316 82.7645 89.2245 80.587 89.9731C78.2744 90.7678 76.9767 92.8096 76.5148 95.1385C76.0085 97.6917 76.6582 100.444 78.0447 102.618C78.688 103.63 79.566 104.552 80.7326 104.924C82.1189 105.366 83.4 104.575 84.8192 104.983C85.7861 105.26 86.2124 106.197 86.0373 107.135C85.9672 107.502 85.8391 107.824 85.666 108.104C86.1764 109.118 86.6488 110.163 87.2503 111.124C88.1791 112.606 89.3021 113.833 90.5251 115.071C91.7892 116.349 93.0763 117.601 94.4284 118.786C95.7245 119.922 97.2098 120.729 98.569 121.77C99.5228 122.5 99.9952 123.524 99.5248 124.696C99.1365 125.665 97.8283 126.489 96.7684 126.052C94.7407 125.214 92.9662 123.788 91.3508 122.32C89.8525 120.958 88.5484 119.329 87.5626 117.561C86.6328 115.893 85.9482 114.001 85.3707 112.176L85.2986 111.949C85.0264 111.081 84.7402 110.106 84.554 109.122C83.4421 109.732 81.9328 109.821 80.7434 109.656C78.8209 109.392 77.0675 108.421 75.7424 107.006C75.1248 106.347 74.579 105.595 74.1076 104.782C74.1504 105.277 74.1759 105.757 74.2034 106.193C75.305 107.403 75.7469 109.148 75.3559 110.741C76.2775 111.692 76.5358 113.12 76.0547 114.335C77.0635 115.338 77.0255 116.934 76.5894 118.383C77.7819 119.721 77.8948 121.801 76.9637 123.31L76.9356 123.418C77.8758 124.995 77.6638 127.034 76.4858 128.426C77.2903 129.99 77.1658 132.095 75.1552 132.702C74.4224 132.923 73.7122 132.735 73.1806 132.322C73.6659 134.742 73.8831 137.198 73.2359 139.63C72.9783 140.594 72.0372 141.299 71.0476 141.299C70.2205 141.299 69.6192 140.882 69.2037 140.268C69.2522 141.489 69.1784 142.716 68.9189 143.953C68.7622 144.701 68.0708 145.283 67.3367 145.463C67.6015 145.764 67.707 146.196 67.4532 146.647C66.3769 148.557 63.7763 147.765 63.6005 145.935C62.866 145.385 62.5246 144.483 62.3833 143.508C62.1773 142.087 62.1026 140.687 61.8692 139.284L61.7801 139.367L61.734 139.407L61.7192 139.509C61.5854 140.203 61.1951 140.688 60.6884 140.979C60.7986 142.189 60.5948 143.422 59.8289 144.341C59.3187 144.953 58.4495 145.194 57.7045 145.061C57.6577 145.064 57.6097 145.064 57.56 145.057C55.8725 144.832 54.8963 143.228 55.3404 141.755C54.661 140.921 54.3749 139.862 54.5759 138.815C53.2612 137.942 53.288 136.025 53.7433 134.485C52.365 133.395 51.8467 131.356 52.5392 129.736C51.297 128.19 51.1242 126.035 51.9682 124.273C50.6015 123.148 50.6093 120.975 51.9648 119.824C51.243 118.387 50.8077 116.666 51.5291 115.352C51.0202 114.788 50.7407 113.986 50.7997 113.21C50.886 112.072 51.6375 111.284 52.5702 110.76L52.6348 110.404C52.8538 110.432 53.0871 110.37 53.2928 110.172C53.4965 109.976 53.706 109.818 53.9227 109.688C54.1681 109.684 54.3794 109.575 54.5279 109.406C54.9342 109.268 55.3712 109.207 55.8559 109.202C56.9027 109.19 56.9396 107.62 55.9654 107.519C55.8116 107.363 55.5997 107.265 55.37 107.265L55.19 107.266C54.7694 107.27 54.3446 107.296 53.9544 107.464C53.7008 107.572 53.5051 107.736 53.3619 107.936C53.3351 108.241 53.1705 108.543 52.8141 108.792C52.4025 109.081 51.8395 109.114 51.3989 108.853C50.7822 108.488 50.7758 107.917 50.8469 107.298C51.0027 105.941 50.2245 104.664 50.4098 103.275C50.4918 102.662 50.6956 102.133 51.028 101.704C50.3272 100.653 50.2036 99.2951 50.7431 98.1411C49.6191 96.9291 49.4247 95.0605 50.1415 93.6012C50.1518 93.5662 50.16 93.5302 50.1711 93.4951C50.2521 93.2469 50.3637 93.0237 50.4867 92.8096C49.8575 91.7166 49.8622 90.3755 50.5017 89.2876C49.533 88.1556 49.5022 86.3541 50.3637 85.1343C50.3688 85.0332 50.3793 84.9321 50.3879 84.831C49.9926 83.8019 50.0875 82.6319 50.5891 81.675C50.4102 81.2614 50.2722 80.8161 50.184 80.3419C49.958 79.1192 50.0743 77.9305 50.4119 76.7373C50.4665 76.5491 50.5277 76.3608 50.5931 76.1726C50.604 75.3555 50.6351 74.5419 50.676 73.7299C50.5156 73.0424 50.4897 72.2869 50.4861 71.5857L50.4851 71.1309C50.4773 69.9736 50.3969 68.279 51.1267 67.2953C50.6581 66.2326 50.8507 64.8935 51.6329 64.0512C51.0838 63.1046 50.9686 61.9423 51.5204 60.892C51.6091 60.723 51.7118 60.5656 51.8245 60.4167C51.7789 59.4549 51.9808 58.4631 52.4921 57.5071C52.8242 56.8848 53.3202 56.346 53.9101 55.915C53.9001 55.7874 53.894 55.6601 53.8961 55.5346C53.9065 54.9749 54.0304 54.4129 54.2387 53.8885C53.8647 53.2484 53.6913 52.5269 53.9101 51.7492C54.1548 50.8693 54.7986 50.112 55.6023 49.6848C55.6671 48.8551 55.7964 48.0304 55.9812 47.2166C55.4873 46.1139 55.8806 44.6586 56.997 44.0089C56.8514 43.1277 56.9827 42.2139 57.6224 41.5256C57.8648 41.2648 58.1506 41.0669 58.4579 40.9358C58.3098 40.0497 58.477 39.1279 59.0883 38.4063C59.5875 37.8172 60.3272 37.4593 61.0801 37.4066C61.37 35.8654 62.8388 34.713 64.3884 34.8048C64.5821 34.1262 65.0449 33.5346 65.7627 33.2346C65.9464 33.1579 66.1321 33.1072 66.3171 33.0791C67.5773 31.8049 69.4533 30.9412 71.0774 30.4989C72.7065 30.057 74.3578 30.0142 75.7566 30.528L75.8585 30.5666L75.9724 30.5517C76.4664 30.4968 76.9599 30.4651 77.4536 30.4524ZM65.0736 134.892C64.6385 134.756 64.1532 135.054 64.0352 135.484C63.9107 135.938 64.188 136.388 64.6248 136.525C65.169 136.695 65.7405 136.737 66.3077 136.737C66.7637 136.738 67.1518 136.349 67.1518 135.891C67.1518 135.432 66.7654 135.046 66.3077 135.046C65.8464 135.045 65.506 135.028 65.0736 134.892ZM61.2037 125.907C60.5531 125.908 59.9953 126.063 59.5128 126.52C59.1913 126.826 59.1833 127.414 59.5128 127.717C59.8457 128.024 60.3287 128.042 60.6704 127.749L60.7363 127.69C60.7442 127.683 60.7503 127.677 60.7553 127.672C60.7827 127.655 60.8103 127.636 60.8395 127.621L60.7844 127.657C60.7425 127.688 60.8397 127.638 60.8942 127.615L60.9114 127.608L60.9168 127.606L60.9606 127.603C61.0413 127.599 61.1226 127.599 61.2037 127.599C61.6451 127.599 62.0679 127.211 62.0476 126.754C62.027 126.295 61.6767 125.907 61.2037 125.907ZM73.4799 120.539C74.3934 119.977 73.5774 118.541 72.6613 119.058L72.628 119.078C72.1583 119.366 71.5806 119.327 71.0485 119.327C69.9625 119.328 69.9606 121.021 71.0485 121.02H71.2283C72.0084 121.014 72.7975 120.959 73.4799 120.539ZM66.2899 114.362C65.5996 114.232 64.8265 114.116 64.1003 114.195L63.9796 114.21H63.7562C63.5621 114.21 63.374 114.289 63.2232 114.412C62.9843 114.511 62.7581 114.644 62.5518 114.823C61.7295 115.538 62.9277 116.731 63.7454 116.02C63.7908 115.98 63.8435 115.948 63.9021 115.921L63.9471 115.902H64.85C64.9321 115.902 65.012 115.885 65.0899 115.86C65.383 115.901 65.6561 115.959 65.8411 115.994C66.9028 116.195 67.3577 114.564 66.2899 114.362ZM65.5183 98.1211C64.1953 97.5056 62.7301 97.5106 61.5065 98.3643C60.6315 98.9758 61.4443 100.416 62.3267 99.8466L62.3583 99.8255C62.4681 99.7495 62.5807 99.6854 62.6947 99.6274C63.3158 99.8065 63.9411 99.8155 64.5416 99.5943L64.6198 99.5643L64.6664 99.5823C65.6455 100.038 66.5039 98.5795 65.5183 98.1211ZM79.9259 95.4698C78.5894 95.3197 78.5786 93.2029 79.9259 93.354C82.7705 93.6743 85.3517 94.9414 87.2413 97.1192C88.1211 98.1311 86.6728 99.6124 85.7771 98.6455L85.75 98.6145C84.2467 96.883 82.218 95.7271 79.9259 95.4698ZM64.9534 84.6028C64.6563 84.5701 64.3599 84.5539 64.068 84.568C63.367 84.6019 62.5134 85.0707 62.821 85.9176C63.0677 86.5963 63.8763 86.6231 64.2754 86.2612C64.4414 86.2652 64.6074 86.2762 64.7725 86.2931C65.2133 86.3385 65.6499 86.4227 66.0843 86.5086C67.1454 86.7179 67.5997 85.0872 66.5331 84.8767L66.0614 84.7831C65.9024 84.7519 65.742 84.7214 65.5809 84.6934C65.4845 84.6454 65.3811 84.6131 65.2707 84.6049L65.2148 84.6028H64.9534ZM56.567 71.4741L56.4678 71.4606C55.0425 71.2778 52.7546 71.446 52.5816 73.2649C52.486 74.2722 53.9377 74.3355 54.2242 73.4741C55.2767 73.2839 56.3378 73.2476 57.3831 73.3631C57.782 72.9569 57.7852 72.1762 57.1213 71.9813C57.0276 71.7288 56.832 71.5124 56.567 71.4741ZM89.1469 68.402C88.8176 68.0989 88.2772 68.0587 87.9529 68.402C87.7657 68.5996 87.6106 68.8192 87.4865 69.0607L87.4044 69.2238C87.3904 69.251 87.3764 69.2778 87.3614 69.3044C87.3344 69.3536 87.3033 69.4007 87.2733 69.4484L87.2523 69.4684C87.2443 69.4767 87.2353 69.4866 87.2233 69.4986C86.92 69.8203 86.881 70.3802 87.2233 70.6952C87.5526 70.9983 88.093 71.0386 88.4173 70.6952C88.6035 70.4976 88.7596 70.2783 88.8837 70.0365L88.9658 69.8736C88.9798 69.8465 88.9938 69.8196 89.0088 69.793C89.0358 69.7436 89.0669 69.6965 89.0969 69.6488L89.1309 69.6152C89.1359 69.6102 89.1409 69.6047 89.1469 69.5987C89.4502 69.2771 89.4882 68.717 89.1469 68.402ZM71.8386 66.1985C70.6493 65.3536 69.2352 65.3143 68.142 66.3307C67.353 67.0643 68.5122 68.2398 69.3077 67.5524L69.3356 67.5273C69.3645 67.5003 69.3939 67.4765 69.423 67.4539C69.5656 67.5757 69.7469 67.653 69.9541 67.6532C70.0083 67.6533 70.0623 67.6532 70.1164 67.6543L70.1974 67.6572L70.2409 67.6608L70.2463 67.6619L70.2843 67.678C70.3537 67.7094 70.4495 67.7579 70.3181 67.6754C70.3474 67.6908 70.3748 67.709 70.4027 67.7268L70.4512 67.771C70.7694 68.0727 71.3199 68.1124 71.6358 67.7788C72.1952 67.5893 72.492 66.6623 71.8386 66.1985ZM83.4651 63.4265L83.4871 63.4196C84.53 63.1211 84.0866 61.4879 83.0387 61.7877C81.9258 62.1061 81.395 63.1435 81.1726 64.2064C81.0791 64.6532 81.3034 65.1209 81.7626 65.2472C82.181 65.3625 82.7064 65.1055 82.8005 64.6562C82.8666 64.3403 82.9426 64.0722 83.0627 63.8235L83.1358 63.6815C83.1698 63.6168 83.1818 63.606 83.2969 63.5053C83.3159 63.4883 83.404 63.4474 83.4651 63.4265ZM65.8035 54.9036L65.6404 54.8663C64.6245 54.6432 63.2761 54.5267 62.6627 55.5363C62.1035 56.456 63.5141 57.2933 64.0949 56.4239C64.1039 56.4236 64.1141 56.4237 64.1259 56.4246L64.145 56.4268L64.4054 56.4057C64.7297 56.4034 65.0401 56.4609 65.3547 56.5356C66.4109 56.7862 66.8619 55.1549 65.8035 54.9036ZM102.272 48.3982C103.042 47.6272 101.849 46.4301 101.079 47.2017C100.471 47.8116 99.8841 48.4257 99.4888 49.2006C99.2816 49.6071 99.3827 50.1185 99.791 50.3582C100.168 50.5793 100.738 50.4629 100.946 50.0547C101.289 49.3831 101.722 48.9511 102.272 48.3982ZM92.5668 46.3742C91.8072 46.8252 91.3148 47.5682 91.0165 48.428C90.8664 48.8596 91.1877 49.3535 91.606 49.4688C92.0564 49.5927 92.4678 49.3284 92.6299 48.9179L92.6439 48.8778C92.724 48.6478 92.8521 48.3761 93.0102 48.1712C93.1453 47.9963 93.3555 47.8212 93.5136 47.7629C93.894 47.6229 94.1632 47.2773 94.1282 46.8737C93.5026 47.0906 92.9221 46.8297 92.5668 46.3742ZM69.8218 42.6936C69.0553 41.9804 68.0269 41.8858 67.0976 42.3175C66.6839 42.5096 66.5803 43.1076 66.7948 43.4753C67.043 43.9006 67.5344 43.9717 67.9494 43.7788C67.8428 43.8283 68.0353 43.7629 68.1185 43.739C68.1291 43.744 68.2684 43.7376 68.3165 43.7383L68.3743 43.742C68.3748 43.7423 68.3606 43.7421 68.3318 43.7411C68.3723 43.7503 68.4123 43.7612 68.4518 43.7738L68.5021 43.7913C68.4767 43.786 68.5908 43.8605 68.6225 43.8853L68.6282 43.89C69.4237 44.6302 70.6203 43.4363 69.8218 42.6936Z" fill="black"/>
<path id="Vector_6" fill-rule="evenodd" clip-rule="evenodd" d="M131.217 107.915C131.943 106.635 134.108 106.843 134.438 108.336C135.11 111.364 131.501 114.16 128.759 114.23C126.035 114.299 122.979 111.979 123.374 109.05C123.471 108.325 124.439 108.413 124.768 108.868L124.896 109.042C125.792 110.246 126.975 111.492 128.637 111.199C129.326 111.078 129.952 110.646 130.369 110.093C130.871 109.423 130.816 108.624 131.217 107.915ZM113.896 85.7635C114.265 85.6617 114.637 85.7012 114.964 85.8403C115.695 85.9742 116.306 86.5834 116.52 87.2792C116.537 87.3393 116.556 87.3983 116.576 87.4574L116.609 87.5455L116.521 87.3223C116.562 87.5415 116.74 87.7726 116.805 87.9928C116.884 88.2641 116.903 88.5713 116.876 88.8696C117.108 88.8726 117.34 88.8806 117.573 88.9006L117.796 88.9206C119.049 89.0367 120.424 89.2509 121.166 90.3328C121.583 90.9413 121.192 92.0363 120.426 92.1534C119.246 92.3345 118.23 91.682 117.055 91.5509C115.944 91.4268 114.782 91.4978 113.685 91.699C111.421 92.1124 109.341 93.0311 107.135 93.6066L106.835 93.6827V93.6817C106.457 93.7728 106.028 93.2473 106.401 92.9391C108.169 91.4868 110.432 90.3098 112.661 89.5932C112.336 89.0758 112.236 88.3952 112.458 87.8407C112.492 87.7256 112.535 87.6135 112.58 87.5024L112.673 87.2732C112.684 87.1651 112.704 87.0581 112.734 86.9534L112.739 86.9214L112.742 86.9233C112.908 86.3838 113.341 85.9167 113.896 85.7635ZM136.446 85.8471C136.929 85.3633 137.608 85.4348 138.112 85.8156L138.179 85.868C138.655 86.0793 139.049 86.5411 139.307 86.9691C139.575 87.4133 139.754 87.8657 139.761 88.3551C140.931 88.3591 142.052 88.7104 142.91 89.6553C143.189 89.9605 143.378 90.4309 143.225 90.8443L143.134 91.0905C142.845 91.8711 141.548 92.3215 141.108 91.4027L141.088 91.3577C140.619 90.2668 138.821 90.3819 137.866 90.493C137.199 90.571 136.542 90.7372 135.898 90.9223C135.672 90.9874 135.447 91.0585 135.223 91.1315L134.999 91.2036C134.878 91.2426 134.256 91.5809 134.643 91.5008C134.747 91.4798 134.826 91.6309 134.719 91.682C134.258 91.9032 133.764 91.4628 133.796 90.9664C133.849 90.1046 135.217 89.6312 135.875 89.334L135.915 89.316C136.168 89.1999 136.432 89.0878 136.705 88.9837C136.552 88.7555 136.425 88.5013 136.32 88.229C136.22 87.9718 136.153 87.7216 136.116 87.4484C136.08 87.3143 136.08 87.1811 136.116 87.0471L136.121 87.0088C136.103 86.9204 136.094 86.829 136.095 86.737L136.091 86.7012H136.095C136.108 86.3791 136.237 86.0563 136.446 85.8471ZM128.722 95.0288C130.579 95.6023 133.643 97.1667 132.676 99.5807C131.324 101.797 127.74 100.168 126.004 99.4516C124.444 98.9342 123.631 101.122 125.139 101.782C137.606 106.716 137.561 93.6937 129.175 93.8849C128.251 93.9059 128.222 94.8377 128.722 95.0288ZM112.228 78.0496L112.544 77.9571C114.191 77.4801 115.871 76.6564 117.332 77.9416C117.907 78.4463 118.025 79.4951 117.615 80.1246C116.679 81.5589 115.292 81.3399 113.78 81.4621C112.63 81.5551 111.497 81.8932 110.424 82.3156C109.546 82.6611 108.732 83.1474 107.963 83.6898C107.209 84.223 106.693 85.0566 105.919 85.5366C105.635 85.7126 105.307 85.5315 105.205 85.2462C104.844 84.234 105.454 82.9731 105.971 82.1106C106.601 81.0585 107.559 80.198 108.588 79.5469C109.716 78.8338 110.962 78.4221 112.228 78.0496ZM136.214 76.9604C138.996 76.9595 141.673 78.5077 143.23 80.7773C143.759 81.5483 143.372 82.6905 142.612 83.1346C141.76 83.6329 140.85 83.274 140.289 82.5599L140.256 82.5167C139.363 81.3277 138.212 80.3912 136.849 79.7816C136.184 79.484 135.447 79.2426 134.727 79.1202L134.495 79.0802C134.169 79.0256 133.791 78.9734 133.496 79.0245C133.338 79.0452 133.193 79.0974 133.059 79.177C133.124 79.3175 132.958 79.4867 132.805 79.4025C132.113 79.0226 132.198 78.3449 132.769 77.8182C133.576 77.0729 135.171 76.9606 136.214 76.9604Z" fill="black"/>
</g>
<circle id="Ellipse 9" cx="99.5" cy="99" r="97.5" stroke="black" stroke-width="3"/>
</g>
</g>
</svg>
